<svg preserveAspectRatio="none" width="100%" height="100%" overflow="visible" style="display: block;" viewBox="0 0 175.276 34.1186" fill="none" xmlns="http://www.w3.org/2000/svg">
<g id="Group">
<path id="Vector" d="M17.9826 32.3444C16.8943 31.9827 15.6346 31.5259 14.5519 31.737C13.4692 31.9481 12.8974 32.7268 12.7056 33.5886L11.1286 33.5937L11.0788 30.0239L10.9847 26.641L10.946 22.0381C10.946 21.943 11.0106 21.763 11.0862 21.7128C11.2632 21.5952 11.9328 21.6107 12.0859 21.7059C12.1762 21.763 12.2759 21.943 12.3054 22.0624C12.7148 23.7408 13.4877 25.2394 14.48 26.731C16.2506 29.3941 19.1482 31.7543 22.7763 32.2856L23.8829 32.4482C24.5709 32.5486 25.3013 32.5019 25.9856 32.4309C28.6029 32.161 30.7996 30.787 31.7366 28.6915C32.4947 26.9975 31.8473 25.1978 30.1743 24.1042C29.1488 23.4346 28.0975 22.841 26.9207 22.3375L21.3247 19.9461C19.4729 19.1553 17.6893 18.3974 15.9408 17.4509C13.8307 16.3088 12.0103 14.7428 11.2337 12.6749C11.0585 12.2077 10.8556 11.6748 10.804 11.1799C10.7154 10.3216 10.7007 9.45467 10.815 8.61369C11.0788 6.65834 12.2832 4.77913 13.8824 3.41557C14.7732 2.65593 15.7268 2.08143 16.8224 1.57789C19.1778 0.494655 21.7139 0.0326403 24.4068 0.00149312C28.3225 -0.0434973 32.1276 0.928989 35.2484 2.94491C37.222 4.22021 38.4946 5.86236 38.4375 8.04093C38.3803 10.2195 37.0947 12.1662 34.2598 12.0728C31.7421 11.9897 30.6336 9.88035 29.6948 8.16033C28.1916 5.39861 26.4467 2.56076 22.4867 2.04683C21.6549 1.93954 20.7714 1.95511 19.9155 2.03298C19.6481 2.05721 19.3106 2.1593 19.0394 2.21814C16.8611 2.69573 15.3856 4.36037 15.4999 6.27419C15.559 7.26225 15.9242 8.15168 16.5826 8.9615C18.357 11.1453 21.428 12.0191 24.1983 13.0833L28.3926 14.696C30.7387 15.5976 32.9687 16.5631 35.1396 17.7346C38.3895 19.4893 40.5235 21.3892 40.9127 24.7843C40.9662 25.2584 40.9625 25.646 40.9053 26.1167C40.6803 27.9751 39.7452 29.6311 38.1091 30.9047C35.514 32.9258 31.8417 33.9433 28.3594 34.0852C23.8368 34.2686 22.0699 33.6993 17.9844 32.3409L17.9826 32.3444Z" fill="var(--fill-0, #E5DCCF)"/>
<path id="Vector_2" d="M97.9948 33.0643C94.4018 33.6457 90.676 33.1542 87.7544 31.2162C86.1221 30.133 84.9878 28.6967 84.5636 26.949C84.4566 26.5095 84.4142 26.0406 84.3459 25.5647C84.2703 25.0352 84.3791 24.4711 84.4916 23.9156C84.8291 22.2354 85.9598 20.723 87.5128 19.6692C89.8018 18.1153 92.2032 17.527 95.0031 16.9248L98.1719 16.243C99.0793 16.0475 99.9222 15.7949 100.813 15.5249C101.717 15.2515 102.558 14.8708 103.307 14.3396C105.052 13.1023 105.456 10.9705 105.286 9.12762C105.16 7.76753 104.902 6.44723 104.076 5.27402C101.234 1.23873 95.3296 2.71649 95.0179 2.1818C94.9681 2.09528 95.0105 1.81495 95.123 1.78727C95.656 1.65749 96.2961 1.51213 96.8494 1.44465C100.889 0.951482 104.377 1.45849 107.754 3.4571C109.659 4.58359 111.188 6.34168 111.963 8.21743C112.387 9.24702 112.772 10.7144 112.776 11.8322L112.826 27.4128C112.83 28.3005 113.069 29.1432 113.398 29.9218C113.641 30.5033 114.272 30.922 114.982 30.8978C116.587 30.8459 117.658 29.2245 118.317 28.1516C118.396 28.0236 118.983 28.1136 118.938 28.2693C118.507 29.7505 117.614 31.1366 116.271 32.1264C115.167 32.9397 113.857 33.2927 112.424 33.2961C111.472 33.2978 110.557 33.2442 109.655 32.957C107.383 32.2319 105.935 30.6002 105.358 28.5341C104.801 29.2556 104.434 29.8578 103.81 30.4237C102.27 31.8218 100.217 32.7061 97.993 33.066L97.9948 33.0643ZM94.684 30.4773C97.3124 32.3098 100.833 31.5432 102.905 29.5654C103.755 28.7538 104.386 27.8298 104.685 26.7656C104.854 26.1634 105.122 25.5111 105.124 24.8622L105.142 14.4002C102.853 16.4524 100.437 16.7258 97.7107 17.9008C94.7375 19.1812 92.8728 21.2179 92.4522 24.0783C92.3877 24.5195 92.4043 24.9833 92.3987 25.4193C92.3748 27.238 92.9761 29.2868 94.684 30.4773Z" fill="var(--fill-0, #E5DCCF)"/>
<path id="Vector_3" d="M67.799 33.1162C67.5961 33.1162 67.4873 32.7943 67.5482 32.7043C67.8709 32.2181 69.3022 32.5521 70.8847 30.9359C71.7424 30.0603 72.1058 28.9494 72.1888 27.809C72.2127 27.4837 72.316 27.1463 72.316 26.8019L72.3234 10.4133C72.3234 9.91322 72.1777 9.46332 72.1334 8.98227C72.032 7.89558 71.6926 6.87118 71.202 5.87966C70.5343 4.52995 69.2211 3.5765 67.5684 3.19408C67.4043 3.14736 67.4596 2.65939 67.633 2.649L69.0034 2.56595L70.3849 2.48635L72.2294 2.40502L73.2585 2.33927L75.7356 2.17661L77.676 2.07278L79.3305 1.96031C79.4448 1.91013 79.9428 1.92051 79.9465 2.07797L80.0018 5.83813C80.8853 4.91756 81.5124 4.09735 82.4513 3.39308L83.095 2.9103C85.0058 1.70075 87.4276 1.28372 89.7442 1.84437C94.2502 2.93452 95.9544 8.17071 94.2926 11.5069C93.7282 12.6386 92.7082 13.3394 91.3618 13.6786C90.3547 13.9312 89.4067 14.0264 88.3701 13.8707C86.4906 13.5869 84.9523 12.5867 84.565 10.8944C84.4211 10.2697 84.4562 9.51869 84.5465 8.84557C84.7199 7.55469 85.9723 6.24824 86.8337 5.23595C88.2151 3.61457 83.3919 3.60072 80.7285 6.71025C80.4463 7.04076 80.0535 7.40415 80.0074 7.81079C79.9668 8.17071 79.9096 8.51506 79.9096 8.87844L79.9151 27.3505C79.9151 28.1759 80.225 28.9667 80.4906 29.6986C81.446 32.3357 84.1906 32.296 84.3769 32.6559C84.4377 32.7735 84.3898 32.9881 84.2865 33.1196H67.8027L67.799 33.1162Z" fill="var(--fill-0, #E5DCCF)"/>
<path id="Vector_4" d="M141.547 33.2321C139.62 33.0902 137.952 32.5261 136.401 31.6159C134.236 30.3423 132.862 28.3731 132.593 26.1288C132.428 24.7704 132.674 23.2131 133.43 22.0035C136.813 16.5891 145.279 17.2536 149.993 14.8587C150.948 14.3742 151.647 13.6665 152.103 12.7926C152.383 12.2545 152.627 11.6298 152.671 11.0293C152.817 9.03937 152.762 7.5893 151.865 5.78276C150.382 2.79609 146.872 2.19737 143.384 2.32542C143.235 2.33061 143.028 2.19564 142.968 2.0797C142.912 1.97415 143.069 1.77861 143.27 1.73189C146.463 1.00166 149.853 1.16086 152.889 2.296C156.201 3.53497 158.725 5.89697 159.433 8.9044L159.9 10.8874L159.922 27.5893C159.922 28.3333 160.163 29.0497 160.394 29.7107C160.565 30.2022 161.032 30.6503 161.578 30.7992C162.266 30.986 162.965 30.7611 163.5 30.3821C164.841 29.4339 165.112 28.2503 165.566 28.0772C165.663 28.0392 165.994 28.1672 165.973 28.2572C165.732 29.3716 165.081 30.4046 164.313 31.2906C163.125 32.6628 161.408 33.3238 159.429 33.3065C158.097 33.2944 156.889 33.1179 155.731 32.4725C153.28 31.1072 152.867 28.5946 152.752 28.65C152.49 28.7763 151.81 30.325 150.011 31.4429C147.464 33.0245 144.699 33.4674 141.545 33.2356L141.547 33.2321ZM141.824 29.9513C144.037 32.2025 147.995 31.8166 150.181 29.7817C151.517 28.5392 152.221 26.9473 152.457 25.2861C152.507 24.9314 152.594 24.5663 152.594 24.2063L152.59 14.4209C151.529 15.2567 150.626 15.9506 149.406 16.3918L146.489 17.4457C143.014 18.7002 140.765 20.7905 140.241 24.0541C139.935 25.9661 140.278 28.3801 141.824 29.9513Z" fill="var(--fill-0, #E5DCCF)"/>
<path id="Vector_5" d="M52.363 22.6282C54.8807 24.2859 58.1509 24.7895 61.1241 23.7962C63.1346 23.1248 64.8001 22.0451 66.2609 20.723C66.473 20.7161 66.7626 20.8528 66.8401 21.031C66.1318 21.9014 65.4457 22.7736 64.553 23.5021C61.1721 26.2638 56.8247 27.0598 52.2597 26.8002C51.0682 26.7327 49.9653 26.4922 48.8235 26.2049C46.874 25.7152 45.1752 24.8483 43.6702 23.6889C41.0695 21.6886 39.6437 18.9303 39.4538 15.9506C39.3302 14.0091 39.5497 12.0814 40.3944 10.2714C40.9201 9.14319 41.5786 8.11361 42.4584 7.174C44.8193 4.658 48.0655 2.98816 51.7267 2.26312C55.7458 1.46887 60.3937 1.79591 64.0162 3.58515C66.379 4.75144 68.2511 6.52856 68.6587 8.91132C69.0663 11.2941 68.0611 13.3221 65.6338 14.6061C63.5293 15.7187 61.6572 15.89 59.2668 16.0233L57.7414 16.1081L53.1543 16.16C52.5456 16.1669 51.9075 16.3711 51.367 16.5718C49.7919 17.1567 49.4636 18.4977 49.9062 19.7938C50.3083 20.967 51.2471 21.8893 52.3649 22.6265L52.363 22.6282ZM52.2874 14.5144L54.9895 13.7772C56.2032 13.4467 57.3652 13.0643 58.4423 12.4777C61.1426 11.0068 62.4171 8.37143 61.2865 5.75853C60.6151 4.20809 58.9606 3.22868 57.0332 3.06084C53.4199 2.74763 50.7012 4.30672 49.4636 7.18265C49.0615 8.11707 48.7166 9.03764 48.6022 10.0413L48.4067 11.7474C48.3126 12.5677 48.3256 13.4225 48.4067 14.2427L48.5635 15.8277C48.5875 16.0717 48.6502 16.2776 48.7774 16.506L49.1924 16.1357C50.0243 15.3934 51.0941 14.8379 52.2856 14.5126L52.2874 14.5144Z" fill="var(--fill-0, #E5DCCF)"/>
<path id="Vector_6" d="M135.001 11.5017C136.625 8.10842 132.274 8.90959 132.037 5.76892C131.942 4.48669 132.506 3.29098 133.81 2.62651C134.847 2.11777 135.992 1.95166 137.187 1.9482L141.49 1.93608L135.835 13.843L133.932 17.8246L129.715 26.6272L126.648 33.1196L125.073 33.1127L122.83 27.9388L121.758 25.4695L117.487 15.6028L114.65 9.05841L112.839 4.96255C112.306 3.75473 111.164 2.95529 109.701 2.72688L108.833 2.59191L108.86 2.00011C109.115 1.9084 109.41 1.94993 109.686 1.96377C111.153 2.03818 111.424 1.90148 112.901 1.96031C115.039 2.04683 116.424 1.85649 118.424 1.94301C119.147 1.97415 119.82 1.95166 120.541 1.94646L123.684 1.92397C123.763 2.11258 123.782 2.40675 123.758 2.58498L122.548 2.73899C121.24 2.90511 120.44 3.38789 120.152 4.51092C119.883 5.56646 120.749 7.7831 121.223 8.88364L124.095 15.537L127.983 24.6286C128.09 24.8795 128.072 25.0715 128.339 25.319L130.339 21.1972L132.037 17.6931L135.001 11.5V11.5017Z" fill="var(--fill-0, #E5DCCF)"/>
<path id="Vector_7" d="M46.1822 32.5815L44.6845 32.3133C43.8637 32.1662 43.1426 31.9602 42.2997 31.7509C42.2554 31.2214 42.331 30.7438 42.3661 30.216L42.5007 28.1689L42.5763 26.9317C42.58 26.8711 42.6298 26.7466 42.6501 26.7085C42.6778 26.6566 42.8198 26.7414 42.9028 26.7829C44.4189 27.5425 45.9517 28.207 47.6246 28.7209C49.2569 29.2228 50.8616 29.6865 52.6046 29.7886C53.6448 29.8492 54.6906 29.8699 55.7272 29.7834C58.0844 29.5844 60.2811 28.9078 62.2971 27.8886L65.6688 26.1842C66.2756 25.8779 66.9248 25.6201 67.6054 25.5595C68.6254 25.4678 69.3521 25.916 69.6251 26.7241C69.9589 27.7087 69.4388 28.9217 68.6494 29.6675C67.6755 30.588 66.46 31.2162 65.0785 31.654C63.0054 32.3133 60.9046 32.8099 58.6949 32.9916L56.6605 33.1577C55.1351 33.2823 53.6762 33.2875 52.1379 33.2009L50.2215 33.0919L48.5763 32.9275C47.7777 32.8479 46.9956 32.7285 46.1841 32.5832L46.1822 32.5815Z" fill="var(--fill-0, #E5DCCF)"/>
<path id="Vector_8" d="M6.30907 32.6178C5.12678 33.4103 3.46494 33.4986 2.11112 32.9397C0.607893 32.3202 -0.118818 30.941 0.0158261 29.5567C0.198426 27.6862 2.01889 26.3641 4.21932 26.506C6.46954 26.6497 8.01334 28.3022 7.8252 30.2212C7.73298 31.1625 7.25343 31.9845 6.30907 32.6178Z" fill="var(--fill-0, #E5DCCF)"/>
<path id="Vector_9" d="M172.656 33.1023C170.286 33.7651 168.013 32.6732 167.508 30.6573C167.102 29.0376 168.076 27.2968 169.981 26.705C171.44 26.2517 172.91 26.551 174.006 27.366C174.788 27.9475 175.161 28.74 175.258 29.6207C175.424 31.1314 174.417 32.6091 172.656 33.1023Z" fill="var(--fill-0, #E5DCCF)"/>
</g>
</svg>
