<svg preserveAspectRatio="none" width="100%" height="100%" overflow="visible" style="display: block;" viewBox="0 0 326 57.4619" fill="none" xmlns="http://www.w3.org/2000/svg">
<g id="Group">
<path id="Vector" d="M33.4462 54.4738C31.4222 53.8647 29.0791 53.0953 27.0654 53.4509C25.0517 53.8064 23.9882 55.1178 23.6314 56.5692L20.6983 56.5779L20.6057 50.5657L20.4308 44.8683L20.3587 37.1162C20.3587 36.956 20.4788 36.6529 20.6194 36.5684C20.9488 36.3702 22.194 36.3964 22.4788 36.5567C22.6469 36.6529 22.8321 36.956 22.887 37.157C23.6486 39.9839 25.086 42.5077 26.9316 45.0198C30.2249 49.5049 35.6142 53.48 42.3621 54.3747L44.4204 54.6487C45.7 54.8177 47.0585 54.739 48.3312 54.6195C53.1991 54.1649 57.2849 51.8509 59.0276 48.3217C60.4375 45.4686 59.2334 42.4377 56.1219 40.5959C54.2146 39.4681 52.2592 38.4685 50.0705 37.6204L39.6623 33.5929C36.218 32.261 32.9007 30.9846 29.6486 29.3905C25.724 27.467 22.3381 24.8296 20.8939 21.347C20.568 20.5601 20.1906 19.6625 20.0946 18.829C19.9299 17.3836 19.9024 15.9235 20.1151 14.5071C20.6057 11.214 22.8458 8.04906 25.8201 5.7526C27.477 4.47322 29.2506 3.50567 31.2884 2.65761C35.6691 0.833258 40.3861 0.0551448 45.3947 0.00268742C52.6777 -0.0730843 59.7548 1.56475 65.5593 4.95991C69.23 7.10774 71.597 9.87341 71.4907 13.5425C71.3843 17.2116 68.9933 20.4902 63.7205 20.3328C59.0379 20.1929 56.9761 16.6404 55.23 13.7436C52.4341 9.09238 49.1888 4.31293 41.8235 3.44739C40.2763 3.2667 38.6331 3.29292 37.0414 3.42407C36.5439 3.46487 35.9161 3.63681 35.4119 3.7359C31.3604 4.54025 28.616 7.3438 28.8287 10.567C28.9385 12.2311 29.6177 13.729 30.8424 15.0929C34.1426 18.7708 39.8544 20.2425 45.007 22.0348L52.808 24.7509C57.1717 26.2692 61.3192 27.8954 65.3569 29.8684C71.4015 32.8235 75.3706 36.0234 76.0944 41.7412C76.1939 42.5397 76.1871 43.1926 76.0807 43.9852C75.6622 47.1152 73.9229 49.9042 70.88 52.0491C66.0533 55.453 59.2231 57.1666 52.7463 57.4056C44.3346 57.7145 41.0482 56.7557 33.4496 54.468L33.4462 54.4738Z" fill="var(--fill-0, #E5DCCF)"/>
<path id="Vector_2" d="M182.262 55.6867C175.58 56.6659 168.65 55.8382 163.216 52.5742C160.18 50.7498 158.07 48.331 157.281 45.3875C157.082 44.6473 157.003 43.8575 156.877 43.0561C156.736 42.1643 156.938 41.2143 157.148 40.2788C157.775 37.449 159.878 34.9019 162.767 33.1271C167.024 30.51 171.491 29.5192 176.698 28.505L182.592 27.3568C184.28 27.0275 185.847 26.602 187.504 26.1473C189.185 25.6869 190.75 25.0457 192.142 24.151C195.388 22.0673 196.139 18.4769 195.823 15.3732C195.59 13.0825 195.11 10.8589 193.573 8.88305C188.286 2.08691 177.305 4.57572 176.726 3.6752C176.633 3.52949 176.712 3.05737 176.921 3.01074C177.912 2.79217 179.103 2.54737 180.132 2.43371C187.645 1.60314 194.132 2.45703 200.413 5.82304C203.957 7.72025 206.801 10.6812 208.242 13.8403C209.031 15.5743 209.748 18.0456 209.755 19.9282L209.847 46.1686C209.854 47.6636 210.3 49.0828 210.911 50.3943C211.364 51.3735 212.537 52.0787 213.858 52.0379C216.842 51.9505 218.835 49.2198 220.06 47.413C220.207 47.1973 221.298 47.3488 221.216 47.6111C220.413 50.1058 218.753 52.4401 216.255 54.1071C214.201 55.4768 211.765 56.0713 209.099 56.0772C207.329 56.0801 205.628 55.9897 203.95 55.506C199.724 54.2849 197.031 51.5367 195.957 48.057C194.921 49.2723 194.238 50.2865 193.079 51.2394C190.214 53.5942 186.396 55.0834 182.259 55.6896L182.262 55.6867ZM176.105 51.3298C180.993 54.416 187.542 53.125 191.394 49.7939C192.976 48.4271 194.149 46.8709 194.705 45.0786C195.02 44.0644 195.518 42.9657 195.521 41.8729L195.556 24.2531C191.298 27.7094 186.804 28.1699 181.734 30.1487C176.204 32.3053 172.736 35.7354 171.954 40.5527C171.834 41.2959 171.864 42.0769 171.854 42.8113C171.81 45.8742 172.928 49.3247 176.105 51.3298Z" fill="var(--fill-0, #E5DCCF)"/>
<path id="Vector_3" d="M126.101 55.774C125.724 55.774 125.521 55.2319 125.635 55.0804C126.235 54.2614 128.897 54.8239 131.84 52.102C133.436 50.6273 134.112 48.7563 134.266 46.8358C134.31 46.2879 134.503 45.7196 134.503 45.1397L134.516 17.5384C134.516 16.6962 134.245 15.9384 134.163 15.1283C133.974 13.2981 133.343 11.5728 132.431 9.90294C131.189 7.62979 128.746 6.02402 125.672 5.37996C125.367 5.30127 125.47 4.47943 125.792 4.46195L128.341 4.32207L130.911 4.188L134.341 4.05103L136.256 3.9403L140.863 3.66635L144.472 3.49149L147.549 3.30206C147.762 3.21755 148.688 3.23503 148.695 3.50023L148.798 9.833C150.441 8.2826 151.607 6.90122 153.353 5.7151L154.551 4.90201C158.105 2.86492 162.609 2.16257 166.918 3.1068C175.298 4.94281 178.468 13.7615 175.377 19.3802C174.328 21.2862 172.43 22.4665 169.926 23.0377C168.053 23.4632 166.29 23.6235 164.362 23.3612C160.866 22.8832 158.005 21.1988 157.285 18.3486C157.017 17.2965 157.082 16.0317 157.25 14.898C157.573 12.724 159.902 10.5237 161.504 8.81882C164.074 6.08813 155.103 6.06481 150.149 11.3018C149.624 11.8584 148.894 12.4704 148.808 13.1553C148.732 13.7615 148.626 14.3414 148.626 14.9534L148.636 46.0635C148.636 47.4536 149.213 48.7855 149.707 50.0182C151.484 54.4596 156.588 54.3926 156.935 54.9988C157.048 55.1969 156.959 55.5583 156.767 55.7798H126.108L126.101 55.774Z" fill="var(--fill-0, #E5DCCF)"/>
<path id="Vector_4" d="M263.267 55.9691C259.682 55.7301 256.581 54.7801 253.696 53.2471C249.669 51.1022 247.113 47.7857 246.612 44.0059C246.307 41.7182 246.763 39.0953 248.17 37.0582C254.461 27.9394 270.207 29.0585 278.976 25.0251C280.753 24.2091 282.053 23.0171 282.9 21.5454C283.422 20.6391 283.874 19.587 283.957 18.5758C284.228 15.2243 284.125 12.7821 282.458 9.73961C279.7 4.70954 273.171 3.70119 266.684 3.91685C266.406 3.92559 266.022 3.69828 265.909 3.50302C265.806 3.32525 266.097 2.99593 266.471 2.91725C272.41 1.68741 278.715 1.95553 284.362 3.86731C290.523 5.95395 295.216 9.93196 296.533 14.997L297.401 18.3368L297.442 46.4656C297.442 47.7187 297.892 48.9252 298.32 50.0385C298.639 50.8662 299.507 51.621 300.523 51.8716C301.802 52.1863 303.103 51.8075 304.097 51.1692C306.591 49.5722 307.096 47.5788 307.94 47.2874C308.121 47.2233 308.735 47.4389 308.698 47.5905C308.248 49.4673 307.037 51.2071 305.61 52.6993C303.401 55.0103 300.207 56.1235 296.526 56.0944C294.049 56.074 291.802 55.7768 289.648 54.6897C285.089 52.3903 284.32 48.1588 284.108 48.252C283.621 48.4648 282.355 51.0731 279.01 52.9557C274.272 55.6194 269.13 56.3654 263.264 55.9749L263.267 55.9691ZM263.782 50.4436C267.898 54.2351 275.26 53.5852 279.326 50.158C281.809 48.0655 283.12 45.3844 283.559 42.5866C283.651 41.9892 283.813 41.3743 283.813 40.7681L283.806 24.2878C281.833 25.6954 280.152 26.864 277.885 27.6072L272.458 29.382C265.995 31.4948 261.813 35.0153 260.838 40.5117C260.269 43.732 260.907 47.7974 263.782 50.4436Z" fill="var(--fill-0, #E5DCCF)"/>
<path id="Vector_5" d="M97.3911 38.1093C102.074 40.9012 108.156 41.7492 113.686 40.0764C117.425 38.9457 120.523 37.1271 123.24 34.9006C123.635 34.889 124.173 35.1192 124.317 35.4194C123 36.8852 121.724 38.3541 120.063 39.581C113.775 44.2322 105.69 45.5728 97.199 45.1356C94.9829 45.022 92.9314 44.6169 90.8079 44.1331C87.1819 43.3084 84.0224 41.8483 81.2231 39.8957C76.386 36.5268 73.7342 31.8814 73.3809 26.863C73.151 23.5931 73.5593 20.3466 75.1305 17.2983C76.1082 15.3981 77.3328 13.6641 78.9692 12.0817C83.3603 7.8443 89.398 5.032 96.2076 3.81091C103.683 2.47325 112.328 3.02405 119.065 6.03743C123.46 8.00166 126.942 10.9946 127.7 15.0076C128.458 19.0206 126.588 22.4362 122.074 24.5986C118.16 26.4725 114.678 26.761 110.232 26.9854L107.395 27.1282L98.8628 27.2156C97.7307 27.2273 96.5438 27.5712 95.5386 27.9092C92.609 28.8943 91.9983 31.1528 92.8217 33.3356C93.5695 35.3115 95.3157 36.8649 97.3945 38.1063L97.3911 38.1093ZM97.2505 24.4441L102.276 23.2026C104.533 22.646 106.695 22.0019 108.698 21.014C113.72 18.5368 116.091 14.0984 113.988 9.69778C112.739 7.08657 109.662 5.43708 106.077 5.1544C99.3568 4.62691 94.3002 7.25269 91.9983 12.0963C91.2505 13.67 90.609 15.2204 90.3963 16.9107L90.0326 19.7842C89.8577 21.1655 89.8817 22.6052 90.0326 23.9866L90.3242 26.6561C90.3688 27.067 90.4855 27.4138 90.7222 27.7985L91.494 27.1748C93.0412 25.9246 95.0309 24.9891 97.247 24.4412L97.2505 24.4441Z" fill="var(--fill-0, #E5DCCF)"/>
<path id="Vector_6" d="M251.092 19.3709C254.111 13.6559 246.019 15.0053 245.58 9.71582C245.401 7.55632 246.451 5.54254 248.876 4.42345C250.804 3.56665 252.935 3.28688 255.158 3.28105L263.161 3.26065L252.643 23.3139L249.103 30.0197L241.26 44.8447L235.556 55.7792L232.626 55.7675L228.454 47.0538L226.461 42.8951L218.516 26.2778L213.24 15.2559L209.871 8.35775C208.88 6.32357 206.756 4.97717 204.036 4.59249L202.42 4.36517L202.472 3.36848C202.945 3.21402 203.494 3.28397 204.008 3.30728C206.736 3.4326 207.24 3.20237 209.988 3.30146C213.964 3.44717 216.54 3.1266 220.259 3.27231C221.604 3.32477 222.856 3.28688 224.197 3.27814L230.043 3.24025C230.19 3.55791 230.224 4.05334 230.18 4.35351L227.929 4.61289C225.497 4.89266 224.008 5.70575 223.473 7.59713C222.972 9.37485 224.585 13.1081 225.466 14.9615L230.808 26.167L238.039 41.4787C238.238 41.9013 238.204 42.2248 238.701 42.6415L242.42 35.6997L245.58 29.7982L251.092 19.368V19.3709Z" fill="var(--fill-0, #E5DCCF)"/>
<path id="Vector_7" d="M85.8954 54.8729L83.1098 54.4212C81.5832 54.1734 80.2419 53.8266 78.6742 53.474C78.5918 52.5822 78.7325 51.7779 78.7977 50.889L79.0481 47.4414L79.1887 45.3577C79.1956 45.2557 79.2882 45.0459 79.3259 44.9818C79.3774 44.8943 79.6416 45.0371 79.7959 45.1071C82.6158 46.3865 85.4666 47.5055 88.5781 48.3711C91.6141 49.2162 94.5986 49.9973 97.8405 50.1692C99.7753 50.2712 101.72 50.3062 103.648 50.1605C108.033 49.8253 112.118 48.6858 115.868 46.9693L122.139 44.0987C123.268 43.5829 124.475 43.1487 125.741 43.0467C127.638 42.8922 128.99 43.647 129.497 45.008C130.118 46.6662 129.151 48.7092 127.683 49.9652C125.871 51.5156 123.611 52.5735 121.041 53.3108C117.185 54.4212 113.278 55.2576 109.168 55.5636L105.384 55.8433C102.547 56.0532 99.8336 56.0619 96.9726 55.9162L93.4083 55.7326L90.3482 55.4557C88.8628 55.3217 87.4083 55.1206 85.8988 54.8758L85.8954 54.8729Z" fill="var(--fill-0, #E5DCCF)"/>
<path id="Vector_8" d="M11.7344 54.9344C9.53542 56.2691 6.44452 56.4177 3.92651 55.4764C1.13063 54.4331 -0.220993 52.1104 0.0294354 49.779C0.369057 46.6286 3.75499 44.4021 7.8476 44.6411C12.0328 44.883 14.9042 47.6661 14.5543 50.8981C14.3827 52.4834 13.4908 53.8677 11.7344 54.9344Z" fill="var(--fill-0, #E5DCCF)"/>
<path id="Vector_9" d="M321.127 55.7502C316.718 56.8663 312.492 55.0274 311.552 51.6323C310.797 48.9045 312.609 45.9727 316.152 44.976C318.866 44.2125 321.6 44.7167 323.638 46.0893C325.092 47.0685 325.785 48.4032 325.967 49.8866C326.276 52.4308 324.403 54.9196 321.127 55.7502Z" fill="var(--fill-0, #E5DCCF)"/>
</g>
</svg>
