<svg preserveAspectRatio="none" width="100%" height="100%" overflow="visible" style="display: block;" viewBox="0 0 538 464" fill="none" xmlns="http://www.w3.org/2000/svg">
<foreignObject x="-18.9" y="-18.9" width="575.8" height="501.8"><div xmlns="http://www.w3.org/1999/xhtml" style="backdrop-filter:blur(9.45px);clip-path:url(#bgblur_0_144_1251_clip_path);height:100%;width:100%"></div></foreignObject><path id="Rectangle 13" data-figma-bg-blur-radius="18.9" d="M0 50C0 22.3858 22.3858 0 50 0H388C470.843 0 538 67.1573 538 150V414C538 441.614 515.614 464 488 464H50C22.3858 464 0 441.614 0 414V50Z" fill="url(#paint0_linear_144_1251)"/>
<defs>
<clipPath id="bgblur_0_144_1251_clip_path" transform="translate(18.9 18.9)"><path d="M0 50C0 22.3858 22.3858 0 50 0H388C470.843 0 538 67.1573 538 150V414C538 441.614 515.614 464 488 464H50C22.3858 464 0 441.614 0 414V50Z"/>
</clipPath><linearGradient id="paint0_linear_144_1251" x1="269" y1="387.5" x2="269" y2="464" gradientUnits="userSpaceOnUse">
<stop stop-color="#492100"/>
<stop offset="1" stop-color="#E2CDAE"/>
</linearGradient>
</defs>
</svg>
