<svg preserveAspectRatio="none" width="100%" height="100%" overflow="visible" style="display: block;" viewBox="0 0 134 27" fill="none" xmlns="http://www.w3.org/2000/svg">
<g id="Group">
<path id="Vector" d="M13.7478 25.5959C12.9158 25.3097 11.9527 24.9482 11.125 25.1153C10.2973 25.2824 9.86017 25.8986 9.71352 26.5805L8.50789 26.5846L8.46982 23.7596L8.3979 21.0825L8.36829 17.44C8.36829 17.3647 8.41764 17.2223 8.47545 17.1826C8.61082 17.0895 9.12269 17.1018 9.23973 17.1771C9.30882 17.2223 9.38497 17.3647 9.40753 17.4592C9.72057 18.7875 10.3114 19.9733 11.07 21.1537C12.4237 23.2612 14.639 25.129 17.4126 25.5494L18.2587 25.6781C18.7846 25.7575 19.343 25.7206 19.8662 25.6644C21.8671 25.4508 23.5465 24.3635 24.2629 22.7052C24.8424 21.3646 24.3475 19.9405 23.0685 19.075C22.2845 18.5451 21.4807 18.0754 20.5811 17.6769L16.3029 15.7845C14.8871 15.1587 13.5236 14.5589 12.1868 13.8098C10.5737 12.9061 9.18191 11.6668 8.58826 10.0304C8.45431 9.66067 8.29919 9.23891 8.25971 8.84727C8.19203 8.16806 8.18075 7.48201 8.26817 6.8165C8.46981 5.26912 9.39061 3.78199 10.6132 2.70294C11.2942 2.10179 12.0232 1.64715 12.8608 1.24867C14.6615 0.391447 16.6004 0.025829 18.6591 0.0011805C21.6528 -0.0344229 24.5618 0.735161 26.9477 2.33047C28.4565 3.33969 29.4294 4.63921 29.3857 6.36324C29.342 8.08727 28.3592 9.62781 26.1919 9.55386C24.2671 9.48813 23.4196 7.81887 22.7019 6.45773C21.5527 4.27222 20.2187 2.02647 17.1912 1.61977C16.5553 1.53487 15.8799 1.54719 15.2256 1.60881C15.0211 1.62798 14.7631 1.70878 14.5558 1.75533C12.8905 2.13328 11.7624 3.45061 11.8498 4.96512C11.8949 5.74703 12.1741 6.45088 12.6775 7.09174C14.034 8.81988 16.3818 9.5114 18.4998 10.3536L21.7064 11.6298C23.5 12.3432 25.2048 13.1074 26.8645 14.0344C29.3491 15.4229 30.9805 16.9265 31.2781 19.6132C31.319 19.9884 31.3161 20.2951 31.2724 20.6676C31.1004 22.1383 30.3855 23.4488 29.1347 24.4566C27.1507 26.0561 24.3432 26.8612 21.681 26.9735C18.2234 27.1187 16.8726 26.6682 13.7492 25.5932L13.7478 25.5959Z" fill="var(--fill-0, #E5DCCF)"/>
<path id="Vector_2" d="M74.9178 26.1656C72.1709 26.6257 69.3226 26.2368 67.089 24.7031C65.841 23.8459 64.9738 22.7093 64.6495 21.3263C64.5677 20.9785 64.5353 20.6074 64.4831 20.2308C64.4253 19.8118 64.5085 19.3654 64.5945 18.9258C64.8526 17.5961 65.717 16.3993 66.9043 15.5654C68.6542 14.3357 70.4901 13.8701 72.6306 13.3936L75.0532 12.854C75.7469 12.6993 76.3914 12.4994 77.0724 12.2857C77.7634 12.0694 78.4064 11.7681 78.9789 11.3477C80.3128 10.3686 80.6216 8.68158 80.4919 7.22321C80.396 6.14689 80.1986 5.10207 79.5669 4.17364C77.3939 0.980282 72.8802 2.14972 72.6419 1.72659C72.6038 1.65812 72.6363 1.43628 72.7223 1.41437C73.1298 1.31167 73.6191 1.19664 74.0421 1.14324C77.1302 0.752967 79.7967 1.15419 82.3786 2.73581C83.8352 3.62726 85.0042 5.01854 85.5964 6.50293C85.9208 7.3177 86.2155 8.47891 86.2183 9.36352L86.2564 21.6933C86.2592 22.3958 86.4425 23.0626 86.6935 23.6788C86.8796 24.139 87.3619 24.4703 87.9048 24.4512C89.1315 24.4101 89.9508 23.127 90.4542 22.278C90.5148 22.1767 90.9632 22.2479 90.9294 22.3711C90.5994 23.5433 89.917 24.6401 88.8904 25.4234C88.0458 26.067 87.0446 26.3464 85.949 26.3491C85.2214 26.3505 84.5219 26.308 83.8324 26.0807C82.0952 25.5069 80.9883 24.2156 80.5469 22.5806C80.121 23.1516 79.8404 23.6282 79.3638 24.076C78.1864 25.1824 76.617 25.8822 74.9164 26.167L74.9178 26.1656ZM72.3867 24.1184C74.3961 25.5686 77.0879 24.9619 78.6715 23.3968C79.3215 22.7545 79.8038 22.0233 80.0322 21.1811C80.1619 20.7046 80.3664 20.1883 80.3678 19.6748L80.3819 11.3957C78.632 13.0197 76.7848 13.2361 74.7006 14.1659C72.4276 15.1792 71.002 16.791 70.6805 19.0545C70.6311 19.4037 70.6438 19.7707 70.6396 20.1158C70.6213 21.555 71.0809 23.1763 72.3867 24.1184Z" fill="var(--fill-0, #E5DCCF)"/>
<path id="Vector_3" d="M51.8329 26.2066C51.6778 26.2066 51.5946 25.9519 51.6411 25.8807C51.8879 25.4959 52.9821 25.7602 54.192 24.4812C54.8476 23.7884 55.1254 22.9092 55.1889 22.0068C55.2072 21.7494 55.2862 21.4823 55.2862 21.2098L55.2918 8.2406C55.2918 7.84485 55.1804 7.48882 55.1466 7.10813C55.069 6.24817 54.8096 5.43751 54.4345 4.65287C53.924 3.58476 52.9201 2.83024 51.6566 2.52762C51.5311 2.49064 51.5734 2.10448 51.706 2.09626L52.7537 2.03054L53.8098 1.96754L55.2199 1.90318L56.0067 1.85115L57.9005 1.72243L59.3839 1.64027L60.6488 1.55126C60.7362 1.51155 61.1169 1.51976 61.1197 1.64437L61.162 4.62C61.8375 3.8915 62.3169 3.24242 63.0346 2.68509L63.5268 2.30304C64.9876 1.34585 66.8391 1.01584 68.6102 1.45951C72.055 2.32221 73.3579 6.4659 72.0874 9.10603C71.656 10.0016 70.8762 10.5562 69.8468 10.8246C69.0769 11.0245 68.3521 11.0998 67.5596 10.9766C66.1228 10.752 64.9467 9.96052 64.6506 8.62128C64.5406 8.12694 64.5674 7.53263 64.6365 6.99995C64.7691 5.97841 65.7265 4.94454 66.385 4.14346C67.4412 2.86037 63.7538 2.84941 61.7176 5.31016C61.5019 5.57171 61.2015 5.85928 61.1663 6.18108C61.1353 6.4659 61.0915 6.7384 61.0915 7.02597L61.0958 21.6439C61.0958 22.2971 61.3327 22.9229 61.5357 23.5022C62.2661 25.5891 64.3644 25.5576 64.5068 25.8424C64.5533 25.9355 64.5167 26.1053 64.4377 26.2094H51.8357L51.8329 26.2066Z" fill="var(--fill-0, #E5DCCF)"/>
<path id="Vector_4" d="M108.214 26.2985C106.741 26.1862 105.466 25.7398 104.28 25.0195C102.624 24.0116 101.574 22.4533 101.368 20.6772C101.243 19.6023 101.43 18.3698 102.008 17.4127C104.594 13.1279 111.067 13.6538 114.671 11.7586C115.401 11.3751 115.936 10.8151 116.284 10.1235C116.498 9.69766 116.684 9.20332 116.718 8.72816C116.83 7.15339 116.787 6.00586 116.102 4.57624C114.968 2.21272 112.285 1.73892 109.618 1.84025C109.504 1.84436 109.346 1.73755 109.3 1.64581C109.258 1.56228 109.377 1.40754 109.531 1.37056C111.972 0.792693 114.564 0.918675 116.885 1.81698C119.417 2.79744 121.346 4.66662 121.888 7.04658L122.244 8.61587L122.261 21.833C122.261 22.4218 122.446 22.9887 122.622 23.5118C122.754 23.9007 123.11 24.2554 123.528 24.3731C124.054 24.521 124.588 24.343 124.997 24.0431C126.022 23.2927 126.229 22.3561 126.576 22.2191C126.651 22.189 126.903 22.2903 126.888 22.3615C126.703 23.2434 126.205 24.0609 125.619 24.762C124.711 25.8479 123.398 26.371 121.885 26.3573C120.867 26.3477 119.943 26.2081 119.058 25.6973C117.184 24.6169 116.868 22.6286 116.78 22.6724C116.58 22.7723 116.06 23.9979 114.685 24.8825C112.738 26.1341 110.624 26.4847 108.213 26.3012L108.214 26.2985ZM108.426 23.7021C110.118 25.4837 113.144 25.1783 114.815 23.5679C115.836 22.5847 116.374 21.3249 116.555 20.0103C116.593 19.7296 116.659 19.4407 116.659 19.1559L116.656 11.4121C115.845 12.0735 115.155 12.6226 114.222 12.9718L111.992 13.8058C109.335 14.7985 107.616 16.4527 107.216 19.0354C106.982 20.5485 107.244 22.4588 108.426 23.7021Z" fill="var(--fill-0, #E5DCCF)"/>
<path id="Vector_5" d="M40.032 17.907C41.9567 19.2188 44.4568 19.6173 46.7299 18.8313C48.2669 18.3 49.5402 17.4455 50.657 16.3993C50.8192 16.3938 51.0406 16.502 51.0998 16.6431C50.5583 17.3318 50.0338 18.022 49.3513 18.5985C46.7666 20.784 43.443 21.4139 39.953 21.2085C39.0421 21.1551 38.1988 20.9648 37.326 20.7375C35.8355 20.3499 34.5368 19.6639 33.3862 18.7464C31.398 17.1634 30.308 14.9806 30.1627 12.6226C30.0682 11.0862 30.2361 9.56071 30.8819 8.12836C31.2838 7.23553 31.7872 6.42076 32.4598 5.6772C34.2647 3.68615 36.7464 2.36471 39.5455 1.79095C42.6181 1.16241 46.1715 1.42122 48.9409 2.83714C50.7473 3.76009 52.1785 5.16642 52.4901 7.05204C52.8018 8.93765 52.0333 10.5425 50.1776 11.5586C48.5687 12.4391 47.1374 12.5747 45.3099 12.6801L44.1438 12.7472L40.6369 12.7883C40.1716 12.7938 39.6837 12.9554 39.2705 13.1142C38.0663 13.5771 37.8153 14.6383 38.1537 15.664C38.4611 16.5924 39.1789 17.3223 40.0334 17.9056L40.032 17.907ZM39.9741 11.486L42.0399 10.9027C42.9678 10.6411 43.8561 10.3385 44.6796 9.87429C46.744 8.71033 47.7184 6.6248 46.854 4.55706C46.3407 3.33011 45.0759 2.55505 43.6023 2.42222C40.8399 2.17437 38.7615 3.40816 37.8153 5.68404C37.5079 6.4235 37.2442 7.152 37.1568 7.94623L37.0073 9.29642C36.9354 9.9455 36.9453 10.622 37.0073 11.271L37.1272 12.5254C37.1455 12.7185 37.1934 12.8814 37.2907 13.0622L37.608 12.7691C38.244 12.1817 39.0618 11.7421 39.9727 11.4847L39.9741 11.486Z" fill="var(--fill-0, #E5DCCF)"/>
<path id="Vector_6" d="M103.21 9.10201C104.451 6.41669 101.124 7.05071 100.944 4.56531C100.87 3.55061 101.302 2.60438 102.299 2.07855C103.091 1.67596 103.967 1.5445 104.881 1.54176L108.17 1.53217L103.847 10.9548L102.392 14.1057L99.1684 21.0716L96.8234 26.2095L95.6192 26.204L93.9045 22.1096L93.0853 20.1555L89.8195 12.3474L87.6508 7.16847L86.266 3.92719C85.8585 2.97137 84.9857 2.33873 83.8675 2.15797L83.2033 2.05116L83.2245 1.58284C83.4191 1.51026 83.6447 1.54313 83.8562 1.55408C84.9772 1.61297 85.1845 1.50479 86.314 1.55135C87.9483 1.61982 89.0073 1.46918 90.5358 1.53765C91.0886 1.5623 91.6032 1.5445 92.1546 1.54039L94.5574 1.52259C94.618 1.67185 94.6321 1.90464 94.6138 2.04569L93.6888 2.16756C92.689 2.29902 92.077 2.68107 91.8571 3.56979C91.6512 4.4051 92.3139 6.15925 92.6763 7.03017L94.8718 12.2954L97.8443 19.49C97.9261 19.6886 97.912 19.8406 98.1165 20.0364L99.645 16.7746L100.944 14.0016L103.21 9.10065V9.10201Z" fill="var(--fill-0, #E5DCCF)"/>
<path id="Vector_7" d="M35.3067 25.7835L34.1617 25.5712C33.5342 25.4548 32.9828 25.2919 32.3384 25.1262C32.3046 24.7072 32.3624 24.3292 32.3892 23.9116L32.4921 22.2916L32.5499 21.3125C32.5528 21.2646 32.5908 21.166 32.6063 21.1359C32.6275 21.0948 32.7361 21.1619 32.7995 21.1947C33.9586 21.7959 35.1304 22.3217 36.4094 22.7284C37.6573 23.1255 38.8841 23.4925 40.2166 23.5733C41.0119 23.6213 41.8114 23.6377 42.6039 23.5692C44.406 23.4117 46.0854 22.8763 47.6266 22.0698L50.2043 20.7209C50.6682 20.4786 51.1646 20.2745 51.6849 20.2266C52.4647 20.154 53.0203 20.5087 53.229 21.1482C53.4842 21.9273 53.0865 22.8873 52.483 23.4775C51.7385 24.206 50.8092 24.703 49.7531 25.0495C48.1681 25.5712 46.562 25.9642 44.8727 26.108L43.3174 26.2395C42.1513 26.3381 41.0359 26.3422 39.8599 26.2737L38.3948 26.1874L37.137 26.0573C36.5264 25.9944 35.9285 25.8999 35.3081 25.7848L35.3067 25.7835Z" fill="var(--fill-0, #E5DCCF)"/>
<path id="Vector_8" d="M4.82333 25.8123C3.91946 26.4395 2.64897 26.5093 1.61396 26.067C0.464739 25.5768 -0.0908375 24.4854 0.0120992 23.3899C0.151698 21.9096 1.54346 20.8634 3.2257 20.9757C4.94601 21.0894 6.12626 22.3971 5.98243 23.9157C5.91193 24.6607 5.5453 25.3111 4.82333 25.8123Z" fill="var(--fill-0, #E5DCCF)"/>
<path id="Vector_9" d="M131.997 26.1957C130.185 26.7201 128.448 25.8561 128.061 24.2608C127.751 22.979 128.496 21.6015 129.952 21.1331C131.068 20.7744 132.191 21.0113 133.029 21.6562C133.627 22.1163 133.912 22.7435 133.986 23.4405C134.113 24.636 133.343 25.8054 131.997 26.1957Z" fill="var(--fill-0, #E5DCCF)"/>
</g>
</svg>
