<svg preserveAspectRatio="none" width="100%" height="100%" overflow="visible" style="display: block;" viewBox="0 0 493.506 86" fill="none" xmlns="http://www.w3.org/2000/svg">
<g id="Group">
<path id="Vector" d="M50.6317 81.5278C47.5677 80.6162 44.0208 79.4648 40.9723 79.9969C37.9239 80.529 36.314 82.4918 35.7739 84.6639L31.3338 84.677L31.1935 75.6788L30.9287 67.1518L30.8196 55.5497C30.8196 55.3098 31.0014 54.8562 31.2143 54.7297C31.7129 54.4331 33.598 54.4724 34.029 54.7123C34.2835 54.8562 34.5639 55.3098 34.647 55.6108C35.7999 59.8416 37.9759 63.6188 40.7698 67.3785C45.7553 74.0912 53.9138 80.0405 64.1289 81.3795L67.2448 81.7895C69.1818 82.0425 71.2384 81.9247 73.165 81.7459C80.5342 81.0655 86.7193 77.6023 89.3575 72.3203C91.4919 68.0503 89.6691 63.5141 84.9588 60.7575C82.0714 59.0696 79.1113 57.5735 75.798 56.3043L60.0418 50.2764C54.8278 48.2831 49.806 46.3727 44.8828 43.9869C38.9418 41.1082 33.8161 37.1609 31.6298 31.9487C31.1364 30.771 30.5652 29.4276 30.4197 28.1802C30.1705 26.0168 30.1289 23.8316 30.4509 21.7118C31.1935 16.7831 34.5847 12.0464 39.0872 8.60935C41.5955 6.69458 44.2804 5.24649 47.3652 3.97724C53.9969 1.24683 61.1376 0.0822703 68.7197 0.00376012C79.7448 -0.109643 90.4584 2.34162 99.2453 7.42297C104.802 10.6375 108.385 14.7768 108.224 20.2681C108.063 25.7594 104.444 30.6663 96.4618 30.4308C89.373 30.2215 86.2519 24.9046 83.6086 20.5691C79.3761 13.6078 74.4634 6.45468 63.3135 5.15926C60.9714 4.88884 58.4839 4.92809 56.0742 5.12436C55.3212 5.18543 54.3708 5.44277 53.6074 5.59107C47.4742 6.79489 43.3197 10.9908 43.6417 15.8148C43.8078 18.3054 44.8361 20.5473 46.6901 22.5885C51.6859 28.0929 60.3326 30.2956 68.1328 32.978L79.9422 37.0431C86.5479 39.3155 92.8265 41.7493 98.9389 44.7022C108.089 49.1249 114.098 53.9141 115.194 62.4717C115.344 63.6668 115.334 64.6438 115.173 65.8302C114.539 70.5146 111.906 74.6887 107.3 77.8989C99.9932 82.9934 89.6535 85.558 79.8487 85.9157C67.115 86.378 62.1399 84.943 50.6369 81.5191L50.6317 81.5278Z" fill="var(--fill-0, #E5DCCF)"/>
<path id="Vector_2" d="M275.913 83.343C265.797 84.8085 255.306 83.5698 247.08 78.6847C242.484 75.9543 239.291 72.3341 238.096 67.9288C237.795 66.8209 237.675 65.6389 237.483 64.4394C237.27 63.1048 237.577 61.6829 237.894 60.2828C238.844 56.0476 242.027 52.2355 246.4 49.5792C252.845 45.6624 259.606 44.1795 267.49 42.6616L276.412 40.9431C278.967 40.4502 281.34 39.8134 283.848 39.133C286.393 38.4439 288.761 37.4843 290.869 36.1453C295.782 33.0267 296.92 27.6531 296.442 23.0079C296.089 19.5796 295.362 16.2517 293.035 13.2944C285.032 3.12301 268.409 6.84789 267.531 5.50013C267.391 5.28205 267.51 4.57545 267.827 4.50567C269.328 4.17854 271.13 3.81216 272.688 3.64205C284.061 2.39897 293.882 3.67695 303.39 8.71468C308.755 11.5541 313.06 15.9856 315.241 20.7137C316.436 23.3089 317.521 27.0075 317.531 29.8252L317.672 69.0977C317.682 71.3353 318.357 73.4594 319.281 75.4221C319.967 76.8877 321.743 77.9432 323.742 77.8821C328.261 77.7513 331.278 73.6644 333.132 70.9602C333.355 70.6374 335.007 70.8642 334.882 71.2567C333.667 74.9903 331.153 78.4841 327.372 80.9789C324.262 83.0289 320.575 83.9187 316.539 83.9274C313.86 83.9318 311.284 83.7966 308.744 83.0725C302.346 81.245 298.27 77.1319 296.644 71.9241C295.076 73.7429 294.042 75.2608 292.287 76.687C287.951 80.2113 282.171 82.4401 275.908 83.3473L275.913 83.343ZM266.591 76.8222C273.992 81.4413 283.905 79.509 289.737 74.5236C292.131 72.478 293.907 70.1489 294.749 67.4664C295.227 65.9486 295.98 64.3042 295.985 62.6686L296.037 36.2979C289.592 41.4709 282.789 42.16 275.113 45.1216C266.742 48.3492 261.491 53.4829 260.307 60.6928C260.126 61.805 260.172 62.9739 260.157 64.0731C260.089 68.6572 261.782 73.8214 266.591 76.8222Z" fill="var(--fill-0, #E5DCCF)"/>
<path id="Vector_3" d="M190.895 83.4734C190.324 83.4734 190.017 82.6621 190.189 82.4353C191.097 81.2097 195.127 82.0515 199.583 77.9777C201.998 75.7707 203.021 72.9705 203.255 70.0961C203.322 69.2761 203.613 68.4256 203.613 67.5576L203.634 26.2482C203.634 24.9877 203.224 23.8536 203.099 22.6411C202.813 19.902 201.858 17.3199 200.476 14.8206C198.596 11.4185 194.899 9.01523 190.246 8.0513C189.783 7.93353 189.939 6.70353 190.427 6.67736L194.286 6.46801L198.176 6.26736L203.369 6.06236L206.267 5.89663L213.241 5.48663L218.704 5.22493L223.363 4.94142C223.685 4.81493 225.087 4.8411 225.097 5.23801L225.253 14.7159C227.741 12.3955 229.506 10.3281 232.15 8.55289L233.962 7.33598C239.342 4.28717 246.161 3.236 252.684 4.64919C265.371 7.39704 270.169 20.5955 265.49 29.0048C263.901 31.8573 261.029 33.6238 257.238 34.4787C254.403 35.1155 251.733 35.3554 248.815 34.9628C243.523 34.2475 239.192 31.7265 238.101 27.4608C237.696 25.8862 237.795 23.9932 238.049 22.2965C238.537 19.0427 242.064 15.7497 244.489 13.1981C248.378 9.11118 234.798 9.07628 227.299 16.9142C226.505 17.7473 225.398 18.6633 225.269 19.6882C225.154 20.5955 224.993 21.4634 224.993 22.3794L225.009 68.9403C225.009 71.0208 225.881 73.0141 226.629 74.8591C229.319 81.5063 237.047 81.406 237.571 82.3132C237.743 82.6098 237.608 83.1506 237.317 83.4821H190.905L190.895 83.4734Z" fill="var(--fill-0, #E5DCCF)"/>
<path id="Vector_4" d="M398.54 83.7661C393.113 83.4084 388.419 81.9865 384.051 79.6923C377.954 76.4821 374.085 71.5185 373.327 65.8614C372.865 62.4375 373.556 58.512 375.685 55.4632C385.209 41.8155 409.046 43.4903 422.32 37.4538C425.01 36.2325 426.978 34.4486 428.261 32.2459C429.05 30.8895 429.736 29.3149 429.86 27.8014C430.271 22.7855 430.115 19.1304 427.591 14.5768C423.416 7.04856 413.533 5.53941 403.713 5.86218C403.292 5.87526 402.71 5.53506 402.539 5.24283C402.383 4.97676 402.825 4.48389 403.391 4.36612C412.38 2.5255 421.925 2.92678 430.473 5.78804C439.8 8.91099 446.905 14.8647 448.899 22.4453L450.213 27.4438L450.275 69.5426C450.275 71.4182 450.955 73.2239 451.604 74.8901C452.087 76.1288 453.401 77.2584 454.939 77.6335C456.876 78.1046 458.844 77.5376 460.35 76.5824C464.125 74.1922 464.889 71.2088 466.166 70.7726C466.441 70.6767 467.371 70.9994 467.314 71.2262C466.634 74.0352 464.8 76.6391 462.64 78.8723C459.296 82.3311 454.461 83.9972 448.888 83.9536C445.139 83.9231 441.737 83.4782 438.476 81.8513C431.574 78.4099 430.411 72.0768 430.089 72.2163C429.352 72.5348 427.435 76.4385 422.372 79.2561C415.2 83.2427 407.415 84.3593 398.535 83.7748L398.54 83.7661ZM399.319 75.4963C405.551 81.1709 416.696 80.1982 422.85 75.0689C426.61 71.9372 428.593 67.9245 429.258 63.7372C429.398 62.8431 429.642 61.9228 429.642 61.0156L429.632 36.3503C426.646 38.457 424.101 40.206 420.669 41.3182L412.453 43.9745C402.669 47.1367 396.338 52.4056 394.863 60.6317C394.001 65.4514 394.967 71.5359 399.319 75.4963Z" fill="var(--fill-0, #E5DCCF)"/>
<path id="Vector_5" d="M147.433 57.0372C154.522 61.2157 163.729 62.4849 172.101 59.9813C177.761 58.289 182.451 55.5673 186.564 52.235C187.161 52.2175 187.976 52.5621 188.194 53.0114C186.2 55.2053 184.268 57.4036 181.755 59.2398C172.236 66.2011 159.995 68.2074 147.142 67.5532C143.787 67.3831 140.682 66.7768 137.467 66.0528C131.978 64.8184 127.195 62.6332 122.957 59.7109C115.635 54.6688 111.621 47.7163 111.086 40.2055C110.738 35.3117 111.356 30.4528 113.734 25.8905C115.214 23.0467 117.068 20.4515 119.545 18.0831C126.193 11.7412 135.333 7.53219 145.641 5.70465C156.957 3.70264 170.044 4.52699 180.244 9.03696C186.896 11.9767 192.167 16.4562 193.315 22.4622C194.463 28.4682 191.632 33.5801 184.798 36.8165C178.873 39.621 173.602 40.0528 166.871 40.3887L162.576 40.6024L149.661 40.7333C147.947 40.7507 146.15 41.2654 144.629 41.7713C140.194 43.2456 139.269 46.6259 140.516 49.8928C141.648 52.85 144.291 55.1748 147.438 57.0328L147.433 57.0372ZM147.22 36.5853L154.828 34.7272C158.245 33.8941 161.517 32.9302 164.55 31.4516C172.153 27.7442 175.741 21.1014 172.558 14.5152C170.667 10.6072 166.009 8.13846 160.582 7.71537C150.409 6.92591 142.754 10.8558 139.269 18.1049C138.137 20.4602 137.166 22.7806 136.844 25.3104L136.294 29.611C136.029 31.6784 136.065 33.8331 136.294 35.9005L136.735 39.8958C136.802 40.5108 136.979 41.0299 137.337 41.6056L138.506 40.6722C140.848 38.801 143.86 37.4009 147.215 36.5809L147.22 36.5853Z" fill="var(--fill-0, #E5DCCF)"/>
<path id="Vector_6" d="M380.109 28.9913C384.679 20.4381 372.429 22.4575 371.764 14.5411C371.494 11.3091 373.083 8.29516 376.754 6.62027C379.673 5.33794 382.898 4.91923 386.263 4.9105L398.379 4.87997L382.457 34.8927L377.097 44.9289L365.226 67.1167L356.589 83.4817L352.154 83.4643L345.839 70.4229L342.822 64.1988L330.795 39.3285L322.807 22.8326L317.708 12.5085C316.207 9.46409 312.992 7.449 308.874 6.87326L306.428 6.53305L306.506 5.04135C307.223 4.81018 308.054 4.91486 308.833 4.94976C312.961 5.13731 313.725 4.79274 317.884 4.94104C323.903 5.15912 327.803 4.67934 333.433 4.89742C335.469 4.97593 337.364 4.91922 339.395 4.90614L348.244 4.84943C348.467 5.32486 348.519 6.06635 348.452 6.5156L345.045 6.90379C341.363 7.32251 339.109 8.53942 338.299 11.3701C337.541 14.0308 339.981 19.6181 341.316 22.3921L349.402 39.1627L360.349 62.079C360.65 62.7114 360.598 63.1956 361.351 63.8193L366.981 53.4298L371.764 44.5974L380.109 28.987V28.9913Z" fill="var(--fill-0, #E5DCCF)"/>
<path id="Vector_7" d="M130.031 82.1254L125.814 81.4494C123.503 81.0786 121.472 80.5596 119.099 80.0318C118.974 78.6971 119.187 77.4933 119.286 76.163L119.665 71.0031L119.878 67.8846C119.888 67.7319 120.028 67.4179 120.086 67.3219C120.163 67.1911 120.563 67.4048 120.797 67.5095C125.066 69.4242 129.381 71.0991 134.092 72.3945C138.688 73.6594 143.206 74.8284 148.113 75.0857C151.042 75.2384 153.987 75.2907 156.905 75.0726C163.542 74.571 169.727 72.8656 175.404 70.2966L184.897 66.0003C186.605 65.2283 188.433 64.5784 190.35 64.4258C193.221 64.1946 195.268 65.3243 196.036 67.3612C196.976 69.8429 195.512 72.9005 193.289 74.7804C190.547 77.1008 187.125 78.6841 183.235 79.7876C177.398 81.4494 171.483 82.7012 165.261 83.1592L159.533 83.5779C155.238 83.8919 151.131 83.905 146.799 83.6869L141.404 83.4121L136.771 82.9978C134.523 82.7971 132.321 82.4962 130.036 82.1298L130.031 82.1254Z" fill="var(--fill-0, #E5DCCF)"/>
<path id="Vector_8" d="M17.7638 82.2166C14.4349 84.2143 9.75586 84.4367 5.94404 83.0279C1.71158 81.4664 -0.334544 77.9902 0.04456 74.5008C0.558688 69.7858 5.68439 66.4535 11.8799 66.8112C18.2156 67.1732 22.5623 71.3386 22.0326 76.1757C21.7729 78.5485 20.4227 80.6202 17.7638 82.2166Z" fill="var(--fill-0, #E5DCCF)"/>
<path id="Vector_9" d="M486.129 83.4372C479.456 85.1077 473.057 82.3555 471.635 77.2741C470.492 73.1916 473.234 68.8038 478.599 67.3121C482.706 66.1693 486.845 66.9239 489.93 68.9782C492.132 70.4437 493.181 72.4414 493.456 74.6615C493.924 78.4692 491.088 82.1941 486.129 83.4372Z" fill="var(--fill-0, #E5DCCF)"/>
</g>
</svg>
