<svg preserveAspectRatio="none" width="100%" height="100%" overflow="visible" style="display: block;" viewBox="0 0 939.358 185.939" fill="none" xmlns="http://www.w3.org/2000/svg">
<g id="Group">
<path id="Vector" d="M96.374 176.27C90.5419 174.299 83.7904 171.809 77.988 172.96C72.1855 174.11 69.1212 178.354 68.0932 183.05L59.6416 183.079L59.3747 163.624L58.8705 145.188L58.663 120.103C58.663 119.584 59.0089 118.604 59.4142 118.33C60.3631 117.689 63.9514 117.774 64.7718 118.292C65.2562 118.604 65.79 119.584 65.9481 120.235C68.1426 129.382 72.2844 137.549 77.6025 145.678C87.092 160.191 102.621 173.054 122.065 175.949L127.996 176.836C131.683 177.383 135.597 177.128 139.265 176.741C153.291 175.27 165.064 167.783 170.086 156.362C174.149 147.13 170.679 137.323 161.713 131.363C156.217 127.713 150.583 124.479 144.276 121.734L114.285 108.702C104.361 104.392 94.8023 100.262 85.4313 95.1033C74.123 88.8793 64.3666 80.3448 60.205 69.0756C59.2659 66.5295 58.1786 63.6249 57.9018 60.9279C57.4273 56.2504 57.3482 51.5258 57.9611 46.9427C59.3747 36.2865 65.8295 26.0452 74.3998 18.6141C79.1742 14.4742 84.2847 11.3433 90.1563 8.59912C102.779 2.69575 116.371 0.177875 130.803 0.00812968C151.789 -0.237058 172.182 5.06278 188.907 16.0491C199.484 22.9992 206.304 31.9485 205.998 43.8213C205.691 55.694 198.802 66.3031 183.609 65.7939C170.116 65.3413 164.175 53.8457 159.143 44.472C151.087 29.4212 141.736 13.9556 120.513 11.1548C116.055 10.5701 111.32 10.6549 106.733 11.0793C105.3 11.2113 103.491 11.7677 102.038 12.0883C90.3639 14.6911 82.456 23.7631 83.0689 34.193C83.3852 39.5777 85.3424 44.4248 88.8713 48.8382C98.3806 60.7393 114.839 65.5015 129.686 71.3012L152.165 80.0902C164.738 85.0034 176.689 90.2655 188.324 96.6498C205.741 106.212 217.178 116.567 219.263 135.069C219.55 137.653 219.53 139.765 219.224 142.33C218.018 152.458 213.006 161.483 204.238 168.424C190.33 179.438 170.649 184.983 151.987 185.757C127.749 186.756 118.279 183.654 96.3839 176.251L96.374 176.27Z" fill="var(--fill-0, #E5DCCF)"/>
<path id="Vector_2" d="M525.182 180.193C505.927 183.362 485.959 180.683 470.301 170.121C461.553 164.218 455.474 156.391 453.2 146.866C452.627 144.471 452.4 141.915 452.034 139.322C451.629 136.436 452.212 133.362 452.815 130.335C454.624 121.178 460.683 112.936 469.006 107.193C481.274 98.7246 494.144 95.5183 509.149 92.2366L526.131 88.521C530.995 87.4554 535.512 86.0786 540.287 84.6075C545.13 83.1175 549.638 81.0428 553.651 78.1477C563.002 71.405 565.167 59.7869 564.258 49.7436C563.585 42.3314 562.202 35.1361 557.773 28.7424C542.54 6.75091 510.899 14.8044 509.228 11.8904C508.961 11.4189 509.189 9.8912 509.792 9.74032C512.648 9.03304 516.078 8.24089 519.044 7.87311C540.692 5.18547 559.384 7.94855 577.484 18.8406C587.695 24.9797 595.889 34.5609 600.041 44.7833C602.315 50.3943 604.38 58.3912 604.4 64.4832L604.667 149.394C604.687 154.231 605.972 158.824 607.732 163.068C609.036 166.236 612.417 168.518 616.223 168.386C624.823 168.103 630.566 159.267 634.095 153.42C634.52 152.723 637.663 153.213 637.426 154.062C635.113 162.134 630.328 169.688 623.132 175.082C617.211 179.514 610.193 181.438 602.512 181.457C597.412 181.466 592.509 181.174 587.675 179.608C575.497 175.657 567.737 166.764 564.643 155.504C561.658 159.437 559.691 162.719 556.35 165.802C548.096 173.422 537.094 178.241 525.173 180.202L525.182 180.193ZM507.439 166.095C521.525 176.081 540.395 171.904 551.496 161.125C556.053 156.702 559.434 151.666 561.035 145.867C561.944 142.585 563.378 139.03 563.388 135.493L563.487 78.4778C551.219 89.6621 538.27 91.1521 523.66 97.5553C507.726 104.534 497.732 115.633 495.478 131.221C495.132 133.626 495.221 136.154 495.192 138.53C495.063 148.441 498.286 159.607 507.439 166.095Z" fill="var(--fill-0, #E5DCCF)"/>
<path id="Vector_3" d="M363.356 180.476C362.269 180.476 361.686 178.722 362.012 178.231C363.742 175.582 371.412 177.402 379.894 168.594C384.49 163.822 386.437 157.768 386.882 151.553C387.011 149.78 387.564 147.941 387.564 146.065L387.604 56.7503C387.604 54.025 386.823 51.5731 386.586 48.9515C386.042 43.0292 384.223 37.4465 381.594 32.0429C378.015 24.6873 370.977 19.4912 362.12 17.4071C361.241 17.1525 361.537 14.4931 362.466 14.4366L369.811 13.9839L377.215 13.5501L387.1 13.1069L392.615 12.7485L405.891 11.8621L416.29 11.2963L425.157 10.6833C425.77 10.4098 428.438 10.4664 428.458 11.3246L428.755 31.8166C433.49 26.7997 436.851 22.3297 441.882 18.4916L445.332 15.8605C455.573 9.26876 468.552 6.99605 480.967 10.0515C505.116 15.9926 514.25 44.5286 505.343 62.7103C502.319 68.8777 496.852 72.6969 489.636 74.5453C484.239 75.9221 479.158 76.4408 473.603 75.5921C463.53 74.0455 455.286 68.5948 453.21 59.372C452.439 55.9676 452.627 51.8748 453.111 48.2065C454.04 41.1715 460.752 34.0516 465.369 28.5349C472.772 19.6987 446.923 19.6232 432.649 36.5695C431.137 38.3707 429.032 40.351 428.784 42.5672C428.567 44.5287 428.261 46.4053 428.261 48.3856L428.29 149.054C428.29 153.552 429.951 157.862 431.374 161.851C436.495 176.223 451.204 176.006 452.202 177.967C452.528 178.609 452.271 179.778 451.718 180.495H363.376L363.356 180.476Z" fill="var(--fill-0, #E5DCCF)"/>
<path id="Vector_4" d="M758.595 181.108C748.266 180.335 739.33 177.26 731.016 172.3C719.412 165.359 712.047 154.628 710.604 142.396C709.724 134.994 711.039 126.506 715.092 119.915C733.221 90.4072 778.593 94.0284 803.859 80.9769C808.979 78.3364 812.725 74.4794 815.167 69.7171C816.669 66.7843 817.974 63.38 818.211 60.1077C818.992 49.2628 818.696 41.3602 813.892 31.515C805.944 15.2383 787.133 11.9754 768.441 12.6732C767.64 12.7015 766.533 11.966 766.207 11.3342C765.91 10.7589 766.75 9.69328 767.828 9.43866C784.939 5.45907 803.107 6.32667 819.378 12.5129C837.131 19.265 850.654 32.1374 854.45 48.5273L856.951 59.3344L857.069 150.356C857.069 154.411 858.364 158.315 859.6 161.917C860.519 164.595 863.02 167.038 865.946 167.849C869.633 168.867 873.379 167.641 876.246 165.576C883.432 160.408 884.885 153.958 887.317 153.015C887.841 152.808 889.61 153.505 889.502 153.996C888.207 160.069 884.717 165.699 880.605 170.527C874.239 178.005 865.036 181.608 854.43 181.513C847.293 181.447 840.818 180.485 834.611 176.968C821.474 169.527 819.259 155.835 818.646 156.136C817.243 156.825 813.595 165.265 803.957 171.357C790.306 179.976 775.489 182.39 758.586 181.127L758.595 181.108ZM760.078 163.228C771.94 175.497 793.153 173.394 804.867 162.304C812.024 155.533 815.8 146.857 817.065 137.804C817.332 135.871 817.796 133.881 817.796 131.919L817.777 78.5911C812.093 83.1459 807.249 86.9274 800.715 89.3321L785.077 95.0752C766.454 101.912 754.404 113.304 751.597 131.09C749.956 141.51 751.795 154.665 760.078 163.228Z" fill="var(--fill-0, #E5DCCF)"/>
<path id="Vector_5" d="M280.629 123.319C294.122 132.353 311.648 135.097 327.583 129.684C338.357 126.025 347.283 120.141 355.112 112.936C356.249 112.898 357.801 113.643 358.216 114.615C354.42 119.358 350.743 124.111 345.959 128.081C327.84 143.132 304.541 147.47 280.076 146.055C273.69 145.688 267.779 144.377 261.66 142.811C251.212 140.143 242.108 135.418 234.041 129.1C220.104 118.198 212.463 103.166 211.444 86.9274C210.782 76.3466 211.958 65.8412 216.486 55.9771C219.303 49.8286 222.832 44.2176 227.547 39.0969C240.2 25.3853 257.597 16.285 277.219 12.3337C298.758 8.0052 323.668 9.78752 343.082 19.5384C355.745 25.8945 365.778 35.5794 367.962 48.5649C370.147 61.5504 364.76 72.6028 351.751 79.6001C340.473 85.6637 330.439 86.5973 317.628 87.3235L309.454 87.7855L284.87 88.0684C281.608 88.1062 278.188 89.2189 275.291 90.3129C266.85 93.5003 265.09 100.809 267.462 107.872C269.617 114.266 274.649 119.292 280.639 123.309L280.629 123.319ZM280.224 79.1002L294.705 75.0829C301.21 73.2817 307.437 71.1976 313.21 68.0007C327.681 59.985 334.512 45.6227 328.452 31.3829C324.854 22.9334 315.988 17.5958 305.658 16.6811C286.293 14.9742 271.723 23.4709 265.09 39.144C262.935 44.2364 261.087 49.2533 260.474 54.7229L259.426 64.0212C258.922 68.4911 258.991 73.1497 259.426 77.6197L260.266 86.2578C260.395 87.5875 260.731 88.7097 261.413 89.9545L263.637 87.9364C268.095 83.8908 273.828 80.8637 280.214 79.0908L280.224 79.1002Z" fill="var(--fill-0, #E5DCCF)"/>
<path id="Vector_6" d="M723.514 62.6821C732.212 44.1892 708.894 48.5555 707.629 31.4395C707.115 24.4516 710.139 17.9353 717.128 14.314C722.683 11.5415 728.822 10.6362 735.227 10.6174L758.289 10.5513L727.982 75.4412L717.78 97.1404L695.184 145.112L678.745 180.495L670.303 180.457L658.283 152.261L652.54 138.803L629.646 85.0319L614.443 49.3665L604.736 27.0449C601.88 20.4626 595.761 16.1058 587.922 14.861L583.266 14.1254L583.415 10.9003C584.779 10.4005 586.36 10.6268 587.843 10.7022C595.702 11.1077 597.155 10.3628 605.073 10.6834C616.529 11.1549 623.953 10.1176 634.668 10.5891C638.543 10.7588 642.151 10.6362 646.016 10.6079L662.86 10.4853C663.285 11.5132 663.384 13.1164 663.255 14.0877L656.771 14.927C649.762 15.8323 645.472 18.4634 643.93 24.5836C642.487 30.3361 647.133 42.4163 649.673 48.414L665.064 84.6735L685.902 134.22C686.475 135.588 686.376 136.634 687.809 137.983L698.525 115.52L707.629 96.4237L723.514 62.6726V62.6821Z" fill="var(--fill-0, #E5DCCF)"/>
<path id="Vector_7" d="M247.505 177.562L239.478 176.1C235.079 175.299 231.214 174.176 226.697 173.035C226.46 170.15 226.865 167.547 227.053 164.671L227.774 153.515L228.18 146.772C228.199 146.442 228.466 145.763 228.575 145.556C228.723 145.273 229.484 145.735 229.929 145.961C238.055 150.101 246.269 153.722 255.235 156.523C263.983 159.258 272.583 161.785 281.924 162.342C287.499 162.672 293.104 162.785 298.659 162.313C311.292 161.229 323.065 157.541 333.869 151.987L351.939 142.698C355.191 141.029 358.671 139.624 362.318 139.294C367.785 138.794 371.679 141.236 373.142 145.64C374.931 151.006 372.144 157.617 367.913 161.681C362.694 166.698 356.18 170.121 348.776 172.507C337.665 176.1 326.406 178.807 314.564 179.797L303.661 180.702C295.486 181.381 287.667 181.41 279.423 180.938L269.153 180.344L260.335 179.448C256.055 179.014 251.864 178.364 247.515 177.571L247.505 177.562Z" fill="var(--fill-0, #E5DCCF)"/>
<path id="Vector_8" d="M33.8122 177.76C27.476 182.079 18.5696 182.56 11.3141 179.514C3.25788 176.138 -0.636783 168.622 0.0848171 161.078C1.06343 150.883 10.8199 143.679 22.6126 144.452C34.6722 145.235 42.9459 154.241 41.9376 164.699C41.4434 169.829 38.8733 174.308 33.8122 177.76Z" fill="var(--fill-0, #E5DCCF)"/>
<path id="Vector_9" d="M925.315 180.4C912.613 184.012 900.434 178.061 897.726 167.075C895.551 158.248 900.77 148.762 910.982 145.536C918.801 143.066 926.679 144.697 932.55 149.139C936.742 152.307 938.738 156.626 939.262 161.426C940.152 169.659 934.755 177.713 925.315 180.4Z" fill="var(--fill-0, #E5DCCF)"/>
</g>
</svg>
