<svg preserveAspectRatio="none" width="100%" height="100%" overflow="visible" style="display: block;" viewBox="0 0 171.757 33.7026" fill="none" xmlns="http://www.w3.org/2000/svg">
<g id="Group">
<path id="Vector" d="M17.6215 31.95C16.5551 31.5928 15.3206 31.1415 14.2597 31.35C13.1987 31.5586 12.6384 32.3278 12.4505 33.179L10.9051 33.1841L10.8563 29.6578L10.7642 26.3162L10.7262 21.7694C10.7262 21.6754 10.7895 21.4976 10.8636 21.4481C11.0371 21.3318 11.6932 21.3472 11.8432 21.4412C11.9317 21.4976 12.0293 21.6754 12.0583 21.7933C12.4595 23.4514 13.2168 24.9316 14.1892 26.405C15.9243 29.0356 18.7637 31.3671 22.3189 31.8919L23.4034 32.0526C24.0775 32.1517 24.7933 32.1055 25.4638 32.0355C28.0285 31.7688 30.1811 30.4116 31.0993 28.3417C31.8422 26.6683 31.2078 24.8906 29.5684 23.8103C28.5635 23.1488 27.5333 22.5625 26.3802 22.0651L20.8965 19.7029C19.0819 18.9217 17.3341 18.173 15.6207 17.2381C13.553 16.1099 11.7691 14.563 11.0082 12.5204C10.8365 12.0589 10.6376 11.5324 10.587 11.0436C10.5003 10.1957 10.4858 9.33938 10.5979 8.50866C10.8563 6.57715 12.0366 4.72085 13.6036 3.37392C14.4766 2.62354 15.411 2.05605 16.4846 1.55864C18.7927 0.488622 21.2779 0.032241 23.9167 0.00147356C27.7538 -0.0429682 31.4825 0.91766 34.5406 2.90899C36.4745 4.16875 37.7216 5.79087 37.6656 7.94288C37.6096 10.0949 36.3498 12.0179 33.5718 11.9256C31.1047 11.8435 30.0185 9.75987 29.0985 8.06082C27.6255 5.33278 25.9157 2.52953 22.0352 2.02187C21.22 1.91589 20.3543 1.93127 19.5156 2.00819C19.2536 2.03212 18.9228 2.13297 18.6571 2.19109C16.5226 2.66285 15.0766 4.3072 15.1887 6.19769C15.2465 7.1737 15.6044 8.05228 16.2496 8.85223C17.9884 11.0094 20.9977 11.8726 23.7124 12.9238L27.8225 14.5168C30.1215 15.4074 32.3067 16.3612 34.434 17.5184C37.6186 19.2516 39.7098 21.1284 40.0912 24.4821C40.1436 24.9504 40.14 25.3333 40.0839 25.7982C39.8634 27.634 38.9471 29.2698 37.3439 30.5279C34.8009 32.5243 31.2023 33.5294 27.7899 33.6696C23.3582 33.8507 21.6267 33.2884 17.6233 31.9466L17.6215 31.95Z" fill="var(--fill-0, #492100)"/>
<path id="Vector_2" d="M96.0268 32.6611C92.506 33.2354 88.855 32.75 85.9921 30.8355C84.3925 29.7655 83.281 28.3468 82.8653 26.6204C82.7604 26.1862 82.7189 25.723 82.652 25.253C82.5779 24.7299 82.6845 24.1727 82.7948 23.624C83.1255 21.9643 84.2335 20.4703 85.7553 19.4294C87.9983 17.8944 90.3515 17.3133 93.0952 16.7184L96.2003 16.045C97.0896 15.8518 97.9155 15.6023 98.7885 15.3356C99.6741 15.0655 100.498 14.6895 101.232 14.1647C102.942 12.9426 103.338 10.8367 103.171 9.01632C103.049 7.67281 102.796 6.36862 101.986 5.20971C99.2006 1.22362 93.4151 2.68336 93.1096 2.15519C93.0608 2.06973 93.1024 1.79282 93.2127 1.76547C93.735 1.63727 94.3622 1.49369 94.9044 1.42703C98.8626 0.939877 102.28 1.4407 105.59 3.41494C107.457 4.5277 108.955 6.26435 109.714 8.11723C110.13 9.13426 110.508 10.5837 110.511 11.688L110.56 27.0785C110.564 27.9554 110.799 28.7878 111.12 29.557C111.359 30.1313 111.977 30.545 112.673 30.521C114.245 30.4697 115.296 28.8681 115.941 27.8084C116.019 27.6819 116.593 27.7708 116.55 27.9246C116.127 29.3878 115.252 30.7569 113.936 31.7346C112.854 32.538 111.571 32.8867 110.166 32.8901C109.234 32.8918 108.337 32.8388 107.453 32.5551C105.227 31.8389 103.808 30.227 103.242 28.1861C102.696 28.8989 102.336 29.4937 101.726 30.0527C100.216 31.4338 98.2047 32.3073 96.025 32.6628L96.0268 32.6611ZM92.7825 30.1057C95.3581 31.9158 98.8084 31.1586 100.838 29.2049C101.671 28.4032 102.289 27.4904 102.582 26.4392C102.749 25.8444 103.011 25.2 103.012 24.559L103.031 14.2246C100.788 16.2518 98.4198 16.5219 95.7485 17.6825C92.8349 18.9474 91.0076 20.9592 90.5955 23.7847C90.5323 24.2206 90.5485 24.6786 90.5431 25.1094C90.5196 26.9059 91.1088 28.9297 92.7825 30.1057Z" fill="var(--fill-0, #492100)"/>
<path id="Vector_3" d="M66.4377 32.7123C66.2389 32.7123 66.1323 32.3944 66.1919 32.3055C66.5082 31.8252 67.9108 32.1551 69.4615 30.5586C70.302 29.6937 70.658 28.5964 70.7394 27.4699C70.7629 27.1486 70.8641 26.8153 70.8641 26.4751L70.8713 10.2863C70.8713 9.79234 70.7285 9.34792 70.6851 8.87274C70.5857 7.7993 70.2532 6.78739 69.7724 5.80796C69.1181 4.47471 67.8312 3.53289 66.2118 3.15513C66.0509 3.10898 66.1052 2.62696 66.2751 2.6167L67.618 2.53466L68.9717 2.45602L70.7791 2.37569L71.7877 2.31074L74.215 2.15006L76.1164 2.0475L77.7376 1.9364C77.8497 1.88683 78.3377 1.89709 78.3413 2.05263L78.3955 5.76694C79.2613 4.8576 79.8758 4.04739 80.7958 3.3517L81.4266 2.87481C83.299 1.68 85.6722 1.26806 87.9423 1.82188C92.3578 2.89874 94.0278 8.07108 92.3993 11.3666C91.8463 12.4845 90.8468 13.1768 89.5274 13.5118C88.5405 13.7613 87.6115 13.8554 86.5957 13.7015C84.754 13.4212 83.2466 12.4332 82.8671 10.7615C82.7261 10.1445 82.7604 9.40262 82.849 8.7377C83.0189 7.46257 84.2461 6.17205 85.0902 5.17211C86.4439 3.57049 81.7175 3.55681 79.1077 6.62843C78.8311 6.9549 78.4461 7.31386 78.401 7.71554C78.3612 8.07108 78.3052 8.41123 78.3052 8.77018L78.3106 27.017C78.3106 27.8323 78.6142 28.6134 78.8745 29.3365C79.8107 31.9415 82.5002 31.9021 82.6827 32.2577C82.7424 32.3739 82.6954 32.5859 82.5941 32.7158H66.4413L66.4377 32.7123Z" fill="var(--fill-0, #492100)"/>
<path id="Vector_4" d="M138.705 32.8269C136.816 32.6867 135.182 32.1295 133.662 31.2304C131.541 29.9723 130.194 28.0272 129.93 25.8102C129.769 24.4684 130.01 22.93 130.751 21.7352C134.066 16.3868 142.362 17.0432 146.981 14.6775C147.917 14.1989 148.602 13.4998 149.049 12.6366C149.324 12.105 149.562 11.488 149.606 10.8948C149.748 8.92915 149.694 7.49675 148.816 5.71224C147.363 2.76199 143.923 2.17057 140.505 2.29706C140.359 2.30219 140.156 2.16887 140.097 2.05434C140.043 1.95008 140.196 1.75692 140.393 1.71077C143.522 0.989448 146.844 1.1467 149.819 2.26801C153.065 3.49186 155.538 5.82506 156.232 8.79582L156.689 10.7547L156.711 27.2528C156.711 27.9878 156.947 28.6955 157.173 29.3484C157.341 29.8339 157.799 30.2766 158.334 30.4236C159.008 30.6082 159.693 30.386 160.217 30.0117C161.531 29.075 161.797 27.9058 162.241 27.7349C162.337 27.6973 162.66 27.8237 162.641 27.9126C162.404 29.0134 161.766 30.0339 161.014 30.909C159.85 32.2645 158.167 32.9175 156.228 32.9004C154.923 32.8884 153.739 32.7141 152.604 32.0765C150.202 30.7279 149.797 28.2459 149.685 28.3006C149.428 28.4254 148.762 29.9552 146.999 31.0595C144.503 32.6218 141.794 33.0593 138.703 32.8303L138.705 32.8269ZM138.976 29.586C141.145 31.8098 145.024 31.4287 147.166 29.4185C148.474 28.1912 149.165 26.6187 149.396 24.9778C149.445 24.6274 149.53 24.2667 149.53 23.9112L149.526 14.2451C148.487 15.0707 147.601 15.7561 146.406 16.192L143.547 17.2329C140.142 18.4722 137.939 20.537 137.425 23.7607C137.125 25.6495 137.462 28.034 138.976 29.586Z" fill="var(--fill-0, #492100)"/>
<path id="Vector_5" d="M51.3115 22.3523C53.7786 23.9898 56.9832 24.4872 59.8967 23.5061C61.8668 22.8428 63.4989 21.7762 64.9303 20.4703C65.1382 20.4635 65.422 20.5985 65.4979 20.7746C64.8038 21.6344 64.1315 22.4959 63.2567 23.2155C59.9437 25.9435 55.6837 26.7298 51.2103 26.4734C50.0427 26.4067 48.9619 26.1691 47.8431 25.8854C45.9327 25.4017 44.2681 24.5453 42.7932 23.4001C40.2448 21.4241 38.8477 18.6995 38.6615 15.7561C38.5404 13.8383 38.7555 11.9341 39.5833 10.1462C40.0984 9.0317 40.7436 8.01467 41.6058 7.08652C43.9192 4.6012 47.1003 2.95172 50.688 2.23553C54.6263 1.45096 59.181 1.77401 62.7307 3.54143C65.046 4.6935 66.8805 6.44895 67.28 8.80265C67.6794 11.1564 66.6944 13.1597 64.3158 14.428C62.2536 15.527 60.4191 15.6963 58.0767 15.8279L56.5819 15.9116L52.0869 15.9629C51.4905 15.9698 50.8651 16.1714 50.3355 16.3697C48.792 16.9475 48.4703 18.2722 48.9041 19.5524C49.2981 20.7113 50.2181 21.6224 51.3133 22.3506L51.3115 22.3523ZM51.2374 14.3374L53.8853 13.6092C55.0746 13.2827 56.2132 12.905 57.2688 12.3255C59.9148 10.8726 61.1637 8.26935 60.0558 5.68831C59.3979 4.15678 57.7766 3.18931 55.8879 3.02351C52.3472 2.71413 49.6831 4.25421 48.4703 7.09507C48.0763 8.01809 47.7383 8.92743 47.6262 9.91883L47.4347 11.6042C47.3425 12.4144 47.3551 13.2588 47.4347 14.069L47.5883 15.6347C47.6118 15.8757 47.6732 16.0791 47.7979 16.3048L48.2046 15.939C49.0197 15.2057 50.068 14.657 51.2356 14.3357L51.2374 14.3374Z" fill="var(--fill-0, #492100)"/>
<path id="Vector_6" d="M132.291 11.3615C133.881 8.00954 129.617 8.80095 129.386 5.69857C129.292 4.43198 129.845 3.25085 131.123 2.59448C132.139 2.09195 133.261 1.92786 134.432 1.92444L138.649 1.91247L133.108 13.6742L131.242 17.6073L127.111 26.3025L124.105 32.7158L122.561 32.7089L120.364 27.5981L119.313 25.159L115.127 15.4125L112.348 8.94795L110.573 4.90204C110.05 3.70894 108.932 2.91925 107.498 2.69362L106.647 2.5603L106.674 1.97571C106.924 1.88512 107.213 1.92615 107.484 1.93982C108.921 2.01332 109.187 1.87829 110.634 1.9364C112.729 2.02187 114.086 1.83385 116.046 1.91931C116.754 1.95008 117.414 1.92785 118.121 1.92273L121.2 1.90051C121.278 2.08682 121.296 2.3774 121.273 2.55346L120.087 2.70559C118.806 2.86968 118.021 3.34658 117.739 4.45591C117.475 5.49858 118.325 7.6882 118.789 8.77531L121.603 15.3476L125.413 24.3282C125.518 24.5761 125.5 24.7658 125.762 25.0102L127.721 20.9387L129.386 17.4774L132.291 11.3598V11.3615Z" fill="var(--fill-0, #492100)"/>
<path id="Vector_7" d="M45.2549 32.1842L43.7873 31.9192C42.983 31.7739 42.2763 31.5705 41.4503 31.3637C41.407 30.8407 41.4811 30.3689 41.5154 29.8476L41.6473 27.8255L41.7214 26.6033C41.7251 26.5435 41.7739 26.4204 41.7937 26.3828C41.8209 26.3315 41.96 26.4153 42.0414 26.4563C43.527 27.2067 45.029 27.8631 46.6683 28.3707C48.2679 28.8664 49.8403 29.3245 51.5483 29.4254C52.5677 29.4852 53.5925 29.5057 54.6083 29.4202C56.9181 29.2237 59.0707 28.5553 61.0462 27.5485L64.3502 25.8649C64.9448 25.5623 65.581 25.3077 66.248 25.2478C67.2475 25.1572 67.9596 25.5999 68.2271 26.3982C68.5542 27.3708 68.0445 28.569 67.271 29.3057C66.3166 30.2151 65.1256 30.8355 63.7718 31.268C61.7403 31.9192 59.6817 32.4098 57.5164 32.5893L55.5228 32.7534C54.0281 32.8764 52.5984 32.8816 51.091 32.7961L49.2132 32.6884L47.6009 32.526C46.8183 32.4474 46.052 32.3295 45.2567 32.1859L45.2549 32.1842Z" fill="var(--fill-0, #492100)"/>
<path id="Vector_8" d="M6.18238 32.2201C5.02384 33.0029 3.39536 33.0901 2.06873 32.538C0.595689 31.9261 -0.11643 30.5638 0.0155109 29.1963C0.194444 27.3486 1.97836 26.0427 4.13459 26.1828C6.33963 26.3247 7.85243 27.9571 7.66807 29.8527C7.5777 30.7826 7.10778 31.5945 6.18238 32.2201Z" fill="var(--fill-0, #492100)"/>
<path id="Vector_9" d="M169.189 32.6987C166.866 33.3533 164.64 32.2748 164.144 30.2834C163.747 28.6835 164.701 26.964 166.568 26.3794C167.998 25.9316 169.438 26.2273 170.512 27.0324C171.278 27.6067 171.643 28.3895 171.739 29.2596C171.902 30.7518 170.915 32.2115 169.189 32.6987Z" fill="var(--fill-0, #492100)"/>
</g>
</svg>
