<svg preserveAspectRatio="none" width="100%" height="100%" overflow="visible" style="display: block;" viewBox="0 0 713.071 139.939" fill="none" xmlns="http://www.w3.org/2000/svg">
<g id="Group">
<path id="Vector" d="M73.158 132.662C68.7308 131.179 63.6058 129.305 59.2011 130.171C54.7964 131.037 52.4702 134.23 51.6899 137.765L45.2742 137.786L45.0716 123.144L44.6889 109.269L44.5313 90.3904C44.5313 90 44.794 89.2619 45.1016 89.0561C45.822 88.5734 48.5458 88.6373 49.1686 89.0277C49.5363 89.2619 49.9415 90 50.0616 90.4897C51.7274 97.3741 54.8715 103.52 58.9084 109.638C66.112 120.561 77.9003 130.242 92.6601 132.421L97.1623 133.088C99.9612 133.499 102.933 133.308 105.717 133.017C116.364 131.91 125.301 126.274 129.113 117.68C132.197 110.731 129.563 103.35 122.757 98.8645C118.585 96.1179 114.308 93.6835 109.521 91.6182L86.7547 81.8097C79.221 78.5663 71.9649 75.4577 64.8514 71.5754C56.2671 66.8912 48.861 60.4681 45.7019 51.9868C44.9891 50.0705 44.1637 47.8846 43.9535 45.8548C43.5934 42.3345 43.5333 38.7787 43.9986 35.3294C45.0716 27.3095 49.9715 19.6018 56.4772 14.0091C60.1015 10.8934 63.9809 8.53708 68.4381 6.47176C78.0204 2.02884 88.338 0.13387 99.2934 0.00611846C115.224 -0.178412 130.704 3.81028 143.4 12.0787C151.429 17.3094 156.607 24.0447 156.374 32.9802C156.141 41.9157 150.911 49.9002 139.378 49.517C129.136 49.1763 124.626 40.5247 120.806 33.4699C114.691 22.1426 107.592 10.503 91.482 8.39515C88.0979 7.95511 84.5036 8.01898 81.0219 8.33835C79.9338 8.43772 78.5606 8.85646 77.4576 9.09777C68.5957 11.0566 62.5928 17.8842 63.058 25.7339C63.2981 29.7864 64.7838 33.4345 67.4627 36.756C74.6812 45.7128 87.1749 49.2969 98.4455 53.6618L115.509 60.2765C125.054 63.9742 134.126 67.9345 142.957 72.7393C156.179 79.936 164.861 87.7289 166.444 101.654C166.662 103.598 166.647 105.188 166.414 107.119C165.499 114.741 161.694 121.533 155.038 126.757C144.481 135.047 129.541 139.22 115.374 139.802C96.9747 140.554 89.7862 138.219 73.1655 132.648L73.158 132.662Z" fill="var(--fill-0, #E5DCCF)"/>
<path id="Vector_2" d="M398.669 135.614C384.051 137.999 368.894 135.984 357.008 128.035C350.367 123.592 345.753 117.701 344.027 110.533C343.591 108.73 343.419 106.806 343.141 104.855C342.834 102.683 343.276 100.369 343.734 98.091C345.107 91.1995 349.707 84.9964 356.025 80.6741C365.337 74.3007 375.107 71.8877 386.498 69.4178L399.389 66.6215C403.081 65.8195 406.51 64.7833 410.134 63.6761C413.811 62.5547 417.233 60.9933 420.279 58.8144C427.378 53.7398 429.021 44.996 428.331 37.4373C427.821 31.8588 426.77 26.4436 423.408 21.6316C411.845 5.08069 387.826 11.1418 386.558 8.94873C386.355 8.59386 386.528 7.4441 386.985 7.33054C389.154 6.79824 391.758 6.20206 394.009 5.92527C410.442 3.90253 424.631 5.98205 438.371 14.1794C446.122 18.7998 452.343 26.0107 455.494 33.7042C457.22 37.9271 458.788 43.9456 458.803 48.5304L459.006 112.435C459.021 116.076 459.996 119.532 461.332 122.726C462.323 125.11 464.889 126.828 467.778 126.729C474.306 126.516 478.666 119.866 481.344 115.465C481.667 114.94 484.053 115.309 483.873 115.948C482.117 122.023 478.486 127.708 473.023 131.768C468.528 135.103 463.2 136.551 457.37 136.565C453.498 136.573 449.776 136.353 446.107 135.174C436.862 132.201 430.972 125.508 428.623 117.034C426.357 119.993 424.864 122.463 422.328 124.784C416.062 130.519 407.711 134.145 398.661 135.622L398.669 135.614ZM385.2 125.004C395.892 132.52 410.217 129.376 418.644 121.264C422.103 117.935 424.669 114.145 425.885 109.78C426.575 107.31 427.663 104.635 427.67 101.973L427.746 59.0629C418.433 67.4803 408.604 68.6016 397.513 73.4207C385.417 78.6727 377.831 87.0263 376.12 98.7581C375.857 100.568 375.925 102.47 375.902 104.259C375.805 111.718 378.251 120.121 385.2 125.004Z" fill="var(--fill-0, #E5DCCF)"/>
<path id="Vector_3" d="M275.826 135.827C275 135.827 274.557 134.507 274.805 134.138C276.118 132.144 281.941 133.514 288.379 126.885C291.868 123.294 293.347 118.737 293.684 114.06C293.782 112.726 294.202 111.342 294.202 109.929L294.232 42.7106C294.232 40.6595 293.639 38.8142 293.459 36.8412C293.047 32.384 291.666 28.1824 289.67 24.1157C286.954 18.5798 281.611 14.6692 274.888 13.1007C274.22 12.909 274.445 10.9076 275.15 10.865L280.725 10.5243L286.346 10.1978L293.849 9.86427L298.036 9.59459L308.114 8.92744L316.008 8.5016L322.739 8.04027C323.204 7.83445 325.23 7.87703 325.245 8.52289L325.47 23.9454C329.064 20.1696 331.616 16.8055 335.435 13.9168L338.054 11.9367C345.828 6.97567 355.68 5.26522 365.105 7.56475C383.436 12.0361 390.37 33.5125 383.609 47.1961C381.313 51.8378 377.163 54.7122 371.685 56.1032C367.588 57.1395 363.731 57.5298 359.514 56.8911C351.868 55.7271 345.61 51.6249 344.034 44.6837C343.449 42.1216 343.591 39.0413 343.959 36.2805C344.664 30.9859 349.76 25.6274 353.264 21.4755C358.884 14.8253 339.262 14.7685 328.426 27.5224C327.278 28.878 325.68 30.3684 325.493 32.0363C325.327 33.5125 325.095 34.9249 325.095 36.4153L325.117 112.179C325.117 115.565 326.378 118.808 327.458 121.81C331.345 132.626 342.511 132.463 343.269 133.939C343.516 134.422 343.321 135.302 342.901 135.842H275.841L275.826 135.827Z" fill="var(--fill-0, #E5DCCF)"/>
<path id="Vector_4" d="M575.854 136.303C568.012 135.721 561.229 133.407 554.918 129.674C546.109 124.45 540.519 116.374 539.423 107.168C538.755 101.597 539.753 95.2095 542.83 90.2484C556.592 68.0409 591.034 70.7663 610.213 60.9436C614.1 58.9564 616.944 56.0536 618.797 52.4694C619.938 50.2622 620.928 47.7 621.108 45.2373C621.701 37.0754 621.476 31.1278 617.829 23.7182C611.796 11.4683 597.517 9.0126 583.327 9.5378C582.719 9.55909 581.879 9.00551 581.631 8.52999C581.406 8.09705 582.044 7.29505 582.862 7.10342C595.851 4.10836 609.643 4.76132 621.994 9.41715C635.471 14.4988 645.736 24.1867 648.617 36.5218L650.515 44.6553L650.606 113.159C650.606 116.21 651.588 119.149 652.526 121.86C653.224 123.875 655.123 125.714 657.344 126.324C660.143 127.091 662.987 126.168 665.163 124.614C670.618 120.724 671.721 115.87 673.567 115.16C673.965 115.004 675.308 115.529 675.225 115.898C674.242 120.469 671.593 124.706 668.472 128.34C663.639 133.968 656.653 136.679 648.602 136.608C643.184 136.558 638.269 135.834 633.557 133.187C623.585 127.587 621.904 117.282 621.439 117.509C620.373 118.027 617.604 124.379 610.288 128.964C599.925 135.451 588.677 137.268 575.846 136.317L575.854 136.303ZM576.979 122.846C585.984 132.08 602.087 130.497 610.978 122.151C616.411 117.055 619.278 110.525 620.238 103.712C620.441 102.257 620.793 100.76 620.793 99.2833L620.778 59.148C616.464 62.576 612.787 65.422 607.827 67.2318L595.956 71.5541C581.819 76.6996 572.672 85.2732 570.541 98.6587C569.295 106.501 570.691 116.402 576.979 122.846Z" fill="var(--fill-0, #E5DCCF)"/>
<path id="Vector_5" d="M213.027 92.8106C223.27 99.6098 236.574 101.675 248.67 97.6012C256.849 94.8475 263.624 90.4188 269.567 84.9964C270.43 84.968 271.608 85.5287 271.924 86.2597C269.042 89.8297 266.251 93.4067 262.619 96.3947C248.865 107.722 231.178 110.987 212.607 109.922C207.759 109.645 203.272 108.659 198.627 107.481C190.696 105.472 183.785 101.916 177.662 97.1612C167.082 88.9567 161.281 77.6436 160.509 65.422C160.006 57.4588 160.899 49.5524 164.335 42.1287C166.474 37.5012 169.153 33.2783 172.732 29.4245C182.337 19.105 195.543 12.2561 210.438 9.2823C226.789 6.02463 245.698 7.36601 260.435 14.7046C270.048 19.4882 277.664 26.7772 279.322 36.5502C280.981 46.3232 276.891 54.6412 267.016 59.9074C258.454 64.471 250.838 65.1736 241.113 65.7201L234.908 66.0679L216.246 66.2808C213.77 66.3092 211.174 67.1467 208.975 67.97C202.567 70.3689 201.231 75.8693 203.032 81.1852C204.668 85.9971 208.487 89.78 213.035 92.8034L213.027 92.8106ZM212.719 59.5312L223.712 56.5078C228.65 55.1522 233.377 53.5837 237.759 51.1777C248.745 45.145 253.93 34.3358 249.33 23.6189C246.599 17.2597 239.868 13.2426 232.026 12.5541C217.327 11.2695 206.266 17.6642 201.231 29.4599C199.595 33.2925 198.192 37.0683 197.727 41.1847L196.932 48.1827C196.549 51.5468 196.601 55.0528 196.932 58.417L197.569 64.9181C197.667 65.9188 197.922 66.7634 198.44 67.7003L200.128 66.1814C203.512 63.1367 207.864 60.8584 212.712 59.5241L212.719 59.5312Z" fill="var(--fill-0, #E5DCCF)"/>
<path id="Vector_6" d="M549.223 47.1749C555.826 33.257 538.125 36.5431 537.165 23.6615C536.774 18.4023 539.07 13.4981 544.376 10.7727C548.593 8.68613 553.252 8.0048 558.115 7.9906L575.621 7.94092L552.615 56.7775L544.871 73.1084L527.717 109.212L515.239 135.842L508.831 135.813L499.706 114.592L495.346 104.464L477.968 63.9955L466.427 37.1535L459.058 20.3541C456.89 15.4002 452.245 12.1212 446.295 11.1844L442.76 10.6308L442.873 8.20351C443.908 7.82735 445.109 7.9977 446.235 8.05447C452.2 8.35966 453.303 7.79898 459.314 8.04029C468.01 8.39515 473.646 7.61444 481.78 7.96931C484.721 8.09706 487.46 8.00479 490.394 7.9835L503.18 7.89123C503.503 8.66484 503.578 9.87138 503.48 10.6024L498.558 11.2341C493.238 11.9154 489.981 13.8956 488.811 18.5017C487.715 22.8311 491.242 31.9227 493.17 36.4366L504.854 63.7258L520.671 101.015C521.107 102.044 521.032 102.832 522.12 103.847L530.254 86.9411L537.165 72.569L549.223 47.1678V47.1749Z" fill="var(--fill-0, #E5DCCF)"/>
<path id="Vector_7" d="M187.882 133.634L181.789 132.534C178.45 131.931 175.516 131.086 172.087 130.228C171.907 128.056 172.214 126.097 172.357 123.932L172.905 115.536L173.212 110.462C173.227 110.213 173.43 109.702 173.513 109.546C173.625 109.333 174.203 109.681 174.541 109.851C180.709 112.967 186.944 115.692 193.75 117.8C200.391 119.858 206.919 121.76 214.01 122.179C218.242 122.428 222.497 122.513 226.714 122.158C236.304 121.342 245.24 118.567 253.442 114.386L267.159 107.396C269.627 106.139 272.269 105.082 275.038 104.833C279.187 104.457 282.144 106.295 283.254 109.61C284.612 113.648 282.496 118.623 279.285 121.682C275.323 125.458 270.378 128.035 264.758 129.83C256.323 132.534 247.777 134.571 238.787 135.316L230.511 135.998C224.305 136.509 218.37 136.53 212.112 136.175L204.315 135.728L197.622 135.054C194.373 134.727 191.191 134.238 187.89 133.641L187.882 133.634Z" fill="var(--fill-0, #E5DCCF)"/>
<path id="Vector_8" d="M25.667 133.783C20.8571 137.034 14.0963 137.396 8.5886 135.103C2.47308 132.563 -0.483379 126.906 0.0643909 121.228C0.807258 113.556 8.21342 108.134 17.1653 108.716C26.3199 109.305 32.6004 116.083 31.8351 123.954C31.4599 127.815 29.5089 131.186 25.667 133.783Z" fill="var(--fill-0, #E5DCCF)"/>
<path id="Vector_9" d="M702.411 135.771C692.769 138.489 683.524 134.01 681.468 125.742C679.817 119.099 683.779 111.959 691.531 109.532C697.466 107.672 703.447 108.9 707.904 112.243C711.085 114.628 712.601 117.878 712.999 121.491C713.674 127.687 709.577 133.748 702.411 135.771Z" fill="var(--fill-0, #E5DCCF)"/>
</g>
</svg>
