<svg preserveAspectRatio="none" overflow="visible" style="display: block;" width="50" height="50" viewBox="0 0 50 50" fill="none" xmlns="http://www.w3.org/2000/svg">
<g id="Users">
<path id="Vector" d="M22.9004 30.8437C24.9945 29.4496 26.5844 27.4185 27.435 25.0509C28.2855 22.6832 28.3515 20.1047 27.6233 17.6967C26.895 15.2886 25.4111 13.1788 23.3911 11.6794C21.371 10.1799 18.922 9.37025 16.4062 9.37025C13.8905 9.37025 11.4415 10.1799 9.42143 11.6794C7.40137 13.1788 5.9175 15.2886 5.18924 17.6967C4.46098 20.1047 4.527 22.6832 5.37753 25.0509C6.22807 27.4185 7.81796 29.4496 9.91211 30.8437C6.12401 32.2399 2.88888 34.8235 0.689453 38.209C0.573859 38.3808 0.493567 38.5739 0.453245 38.777C0.412922 38.9801 0.413374 39.1892 0.454573 39.3921C0.495772 39.595 0.576897 39.7877 0.693232 39.959C0.809567 40.1304 0.958791 40.2768 1.13223 40.3899C1.30567 40.5031 1.49987 40.5806 1.70353 40.618C1.9072 40.6554 2.11626 40.652 2.31859 40.6079C2.52091 40.5638 2.71245 40.4799 2.88207 40.3611C3.05169 40.2424 3.19601 40.0911 3.30664 39.916C4.72537 37.734 6.66671 35.9409 8.95437 34.6996C11.242 33.4583 13.8035 32.8081 16.4062 32.8081C19.009 32.8081 21.5705 33.4583 23.8581 34.6996C26.1458 35.9409 28.0871 37.734 29.5059 39.916C29.735 40.2566 30.089 40.4934 30.4914 40.575C30.8937 40.6567 31.312 40.5768 31.6558 40.3525C31.9997 40.1282 32.2415 39.7776 32.3289 39.3765C32.4163 38.9754 32.3424 38.556 32.123 38.209C29.9236 34.8235 26.6885 32.2399 22.9004 30.8437ZM7.8125 21.0937C7.8125 19.3941 8.31651 17.7326 9.26081 16.3193C10.2051 14.9061 11.5473 13.8046 13.1176 13.1542C14.6879 12.5037 16.4158 12.3335 18.0828 12.6651C19.7498 12.9967 21.2811 13.8152 22.4829 15.0171C23.6848 16.2189 24.5033 17.7502 24.8349 19.4172C25.1665 21.0842 24.9963 22.8121 24.3458 24.3824C23.6954 25.9527 22.5939 27.2949 21.1807 28.2392C19.7674 29.1835 18.1059 29.6875 16.4062 29.6875C14.1278 29.6849 11.9435 28.7787 10.3324 27.1676C8.72132 25.5565 7.81508 23.3722 7.8125 21.0937ZM48.8555 40.3711C48.5084 40.5974 48.0856 40.6766 47.6802 40.5913C47.2747 40.5059 46.9198 40.263 46.6934 39.916C45.2763 37.7327 43.3352 35.9388 41.0471 34.698C38.759 33.4572 36.1966 32.809 33.5938 32.8125C33.1794 32.8125 32.7819 32.6479 32.4889 32.3549C32.1959 32.0618 32.0313 31.6644 32.0313 31.25C32.0313 30.8356 32.1959 30.4382 32.4889 30.1451C32.7819 29.8521 33.1794 29.6875 33.5938 29.6875C34.8593 29.6863 36.109 29.4056 37.2535 28.8655C38.398 28.3253 39.4091 27.539 40.2145 26.5628C41.0199 25.5866 41.5998 24.4446 41.9126 23.2183C42.2255 21.992 42.2637 20.7118 42.0244 19.469C41.7852 18.2263 41.2744 17.0517 40.5285 16.0293C39.7827 15.0068 38.8203 14.1617 37.71 13.5544C36.5997 12.947 35.3689 12.5923 34.1057 12.5158C32.8425 12.4392 31.5779 12.6425 30.4023 13.1113C30.2107 13.1942 30.0043 13.2378 29.7955 13.2395C29.5867 13.2413 29.3797 13.2012 29.1867 13.1216C28.9936 13.042 28.8185 12.9245 28.6716 12.7761C28.5248 12.6276 28.4091 12.4513 28.3316 12.2574C28.254 12.0635 28.2161 11.8561 28.2201 11.6473C28.2241 11.4385 28.2699 11.2327 28.3548 11.0419C28.4397 10.8511 28.5619 10.6793 28.7144 10.5366C28.8668 10.3938 29.0463 10.2831 29.2422 10.2109C31.9325 9.13799 34.9249 9.09938 37.6421 10.1026C40.3592 11.1057 42.6086 13.0796 43.9562 15.6434C45.3039 18.2072 45.6544 21.1792 44.94 23.9862C44.2257 26.7931 42.4972 29.2361 40.0879 30.8437C43.876 32.2399 47.1111 34.8235 49.3105 38.209C49.5369 38.5561 49.6161 38.9788 49.5307 39.3843C49.4454 39.7897 49.2025 40.1447 48.8555 40.3711Z" fill="#7F8B57"/>
</g>
</svg>
